<?xml version="1.0" encoding="UTF-8"?>
<svg width="879px" height="320px" viewBox="0 0 879 320" version="1.1" xmlns="http://www.w3.org/2000/svg" xmlns:xlink="http://www.w3.org/1999/xlink">
    <title>axol black circle</title>
    <defs>
        <ellipse id="path-1" cx="160.148361" cy="160.095378" rx="160.015701" ry="159.904622"></ellipse>
    </defs>
    <g id="Page-1" stroke="none" stroke-width="1" fill="none" fill-rule="evenodd">
        <g id="axol-style-guide" transform="translate(-2289.000000, -536.000000)">
            <g id="axol-black-circle" transform="translate(2289.000000, 536.000000)">
                <path d="M486.303202,261 C495.882611,261 501.902699,258.705397 504.363465,254.11619 C505.593848,251.468571 506.340866,249.129841 506.60452,247.1 C506.868173,245.070159 507,242.025397 507,237.965714 L507,144.896462 C506.991065,141.037509 506.859385,138.126942 506.60452,136.164762 C506.340866,134.134921 505.549906,131.79619 504.231638,129.148571 C502.913371,126.500952 500.584432,124.647619 497.244821,123.588571 C493.90521,122.529524 488.80791,122 481.952919,122 C469.121783,122 462.178908,126.942222 461.124294,136.826667 C459.893911,135.061587 458.31199,133.252381 456.378531,131.399048 C454.445072,129.545714 451.017577,127.56 446.096045,125.441905 C441.174513,123.32381 435.725675,122.264762 429.749529,122.264762 C414.106089,122.264762 399.736974,129.192698 386.642185,143.048571 C373.547395,156.904444 367,173.054921 367,191.5 C367,209.945079 373.503453,226.139683 386.510358,240.08381 C399.517263,254.027937 413.622724,261 428.826742,261 C444.03076,261 454.884495,256.32254 461.387947,246.967619 C461.915254,251.556825 463.804771,255.042857 467.056497,257.425714 C470.308223,259.808571 476.723792,261 486.303202,261 Z M436.394286,215 C429.910476,215 424.390476,212.678095 419.834286,208.034286 C415.278095,203.390476 413,198.177143 413,192.394286 C413,186.611429 415.146667,181.266667 419.44,176.36 C423.733333,171.453333 429.340952,169 436.262857,169 C443.184762,169 448.704762,171.453333 452.822857,176.36 C456.940952,181.266667 459,186.567619 459,192.262857 C459,197.958095 456.853333,203.171429 452.56,207.902857 C448.266667,212.634286 442.878095,215 436.394286,215 Z M630.350093,263 C634.757294,263 640.134078,259.87215 646.480447,253.616451 C652.826816,247.360752 656,241.986137 656,237.492606 C656,232.999076 652.826816,227.580407 646.480447,221.236599 L646.480447,221.236599 L617.128492,191.632163 L646.480447,162.027726 C652.826816,155.683919 656,150.26525 656,145.771719 C656,141.278189 652.826816,135.859519 646.480447,129.515712 C640.134078,123.171904 634.757294,120 630.350093,120 C625.942893,120 620.566108,123.171904 614.219739,129.515712 L614.219739,129.515712 L585.132216,159.120148 L555.780261,129.515712 C549.433892,123.171904 544.101179,120 539.782123,120 C535.463066,120 530.086282,123.171904 523.651769,129.515712 C517.217256,135.859519 514,141.278189 514,145.771719 C514,150.26525 517.173184,155.683919 523.519553,162.027726 L523.519553,162.027726 L552.871508,191.632163 L523.519553,221.236599 C517.173184,227.580407 514,232.999076 514,237.492606 C514,241.986137 517.217256,247.360752 523.651769,253.616451 C530.086282,259.87215 535.463066,263 539.782123,263 C544.101179,263 549.433892,259.828096 555.780261,253.484288 L555.780261,253.484288 L585.132216,224.144177 L614.219739,253.484288 C620.566108,259.828096 625.942893,263 630.350093,263 Z M725.5,264 C737.1,264 748.304545,261.309915 759.113636,255.929745 C769.922727,250.549574 779.106061,242.17062 786.663636,230.792883 C794.221212,219.415146 798,206.405718 798,191.764599 C798,170.596715 790.706061,153.177311 776.118182,139.506387 C761.530303,125.835462 744.745455,119 725.763636,119 C706.781818,119 689.909091,125.879562 675.145455,139.638686 C660.381818,153.39781 653,170.861314 653,192.029197 C653,206.141119 656.734848,218.797749 664.204545,229.999088 C671.674242,241.200426 680.857576,249.667579 691.754545,255.400547 C702.651515,261.133516 713.9,264 725.5,264 Z M724.734694,218 C718.897959,218 713.14966,215.877551 707.489796,211.632653 C701.829932,207.210884 699,200.710884 699,192.132653 C699,183.554422 701.741497,177.054422 707.22449,172.632653 C712.707483,168.210884 718.632653,166 725,166 C731.367347,166 737.292517,168.122449 742.77551,172.367347 C748.258503,176.612245 751,183.068027 751,191.734694 C751,200.401361 748.081633,206.945578 742.244898,211.367347 C736.408163,215.789116 730.571429,218 724.734694,218 Z M840.882353,260.731632 C858.176471,262.845579 869.117647,262.317092 873.705882,259.146172 C877.235294,256.6799 879,249.897654 879,238.799433 C879,228.582023 877.235294,222.328263 873.705882,220.038154 C871.941176,218.805018 870.441176,218.056329 869.205882,217.792086 C867.970588,217.527842 865.544118,217.395721 861.926471,217.395721 C858.308824,217.395721 855.970588,216.55895 854.911765,214.885409 C853.852941,213.211867 853.323529,209.204176 853.323529,202.862336 L853.323529,80.5176592 C853.323529,76.4659276 853.191176,73.3830884 852.926471,71.2691415 C852.661765,69.1551946 851.823529,66.7770044 850.411765,64.1345708 C847.764706,59.3781903 841.058824,57 830.294118,57 C819,57 812.117647,59.3781903 809.647059,64.1345708 C808.411765,66.7770044 807.661765,69.1111541 807.397059,71.1370199 C807.132353,73.1628856 807,76.2016843 807,80.2534158 L807,206.033256 C807,224.882616 809.470588,238.623271 814.411765,247.25522 C818.470588,254.477872 827.294118,258.970009 840.882353,260.731632 Z" id="axol-copy-2" fill="#000000" fill-rule="nonzero"></path>
                <g id="Group-4-Copy-2">
                    <g id="FINAL-Copy-2">
                        <mask id="mask-2" fill="white">
                            <use xlink:href="#path-1"></use>
                        </mask>
                        <use id="Oval-Copy" fill="#000000" xlink:href="#path-1"></use>
                    </g>
                    <g id="Asset-1" transform="translate(21.000000, 74.000000)" fill-rule="nonzero">
                        <path d="M139.505062,73.0601897 C145.868535,73.2956586 152.233722,73.6079108 158.501194,74.8142622 C164.816666,76.0308514 170.688135,78.4708549 176.36246,81.4432228 C183.660225,85.2619137 190.090556,90.2886622 196.395742,95.4979844 C199.190047,97.8066032 201.89178,100.210774 204.314083,102.910135 C205.051231,103.730863 205.920379,103.899787 206.931815,103.573884 C207.788964,105.45081 208.635827,107.343092 209.503261,109.218312 C211.788992,114.129032 214.079293,119.038046 216.374166,123.945354 C216.47288,124.179415 216.558722,124.418651 216.631311,124.661999 C215.544446,125.452014 215.31473,126.08505 215.700447,127.37501 C216.621025,130.456581 217.371887,133.570571 217.414745,136.807415 C217.442174,138.513711 217.267315,140.220007 216.58331,141.810275 C216.177022,142.760682 215.66959,143.641131 214.707869,144.161551 C214.587443,144.235042 214.482618,144.331262 214.399295,144.444797 C210.456411,149.444244 205.452376,153.17762 199.956338,156.288198 C191.940283,160.82524 183.260794,163.333495 174.149302,164.452826 C162.438935,165.891233 150.678854,165.961191 138.908487,165.698422 C130.254713,165.503904 121.614653,165.048323 112.983164,164.435763 C98.5413157,163.417183 84.3919826,159.878455 71.1817319,153.981286 C67.3142766,152.264752 63.7039658,150.075574 60.6885164,147.046898 C58.7650745,145.115371 57.3182073,142.912543 56.9033473,140.146636 C56.6496313,138.44034 57.0216339,136.810827 57.3404932,135.167664 C58.4925012,129.238285 60.2547991,123.515368 63.0199611,118.116647 C64.9862604,114.274068 67.5885642,110.876832 70.2714399,107.51031 C74.3428967,102.403365 78.613212,97.4909384 83.4218167,93.0545683 C88.7944254,88.0960716 94.4670361,83.5539112 100.965938,80.0986614 C105.037395,77.9333716 109.45514,76.8566987 113.879742,75.7749069 C122.296943,73.7171137 130.837574,72.7376997 139.505062,73.0601897 Z M190.016841,-2.09183781e-11 C192.507715,1.19440732 193.198577,3.45524976 193.616866,5.90719736 C194.131155,8.82837642 193.616866,11.6761847 193.071719,14.5239931 C192.526572,17.3718014 192.470001,20.2247286 192.269428,23.0827747 C192.027139,26.3707509 192.002514,29.6710342 192.195713,32.9622295 C192.367143,35.8305134 192.845432,38.6578462 193.15572,41.5073608 C193.524294,44.8926524 193.97344,48.2711188 194.268299,51.6632356 C194.654016,56.0774239 195.271163,60.4591924 195.91231,64.8392547 C196.16774,66.5813831 196.411171,68.3235115 196.68203,70.060521 C197.061101,72.3940046 197.841076,74.6450848 198.98776,76.7150761 C200.139768,78.8325897 203.216932,80.119137 205.488376,79.7249826 C206.979815,79.4673319 207.620963,78.4435541 207.972394,77.2201398 C208.985544,73.6932256 210.329553,70.2806332 211.61699,66.8509779 C213.561004,61.6672501 215.321587,56.4118579 217.617032,51.3663401 C218.949041,48.4417485 220.632481,45.7014368 222.314207,42.9594188 C224.830796,38.8540702 228.290249,35.9414227 232.781708,34.1702872 C235.591442,33.0611947 238.387461,31.9213889 241.255481,30.9675693 C243.341782,30.2714005 245.589226,31.4043811 246.753234,33.7283565 C247.720098,35.6581775 247.19038,37.8610059 245.308081,39.031525 C242.697206,40.6525064 240.472047,42.7273626 238.176603,44.7254354 C237.793664,45.065946 237.483502,45.4796923 237.264597,45.9420246 C235.469727,49.5542536 234.448006,53.4275459 233.41257,57.2923067 C232.450849,60.8755287 231.459985,64.4706948 231.072554,68.1835952 C230.79998,70.7822843 230.558264,73.3860923 230.748551,76.0035506 C230.998839,79.3444785 230.577122,82.6376301 230.031975,85.920544 C229.569115,88.7171634 229.174826,91.537671 228.005675,94.1619545 C226.881096,96.6719162 225.348514,98.8593879 222.986212,100.381404 C222.661403,100.614796 222.390246,100.914352 222.190778,101.260147 C221.505059,102.319757 221.102199,103.500514 220.69591,104.686389 C220.301622,105.838139 220.615338,106.78684 221.331915,107.692883 C223.11307,109.945194 225.501087,110.161894 228.069104,109.646592 C229.013682,109.457193 229.937689,109.148354 230.88741,108.950423 C232.152561,108.685948 233.153711,107.912995 234.144575,107.145162 C236.489734,105.339901 238.552034,103.172905 241.156052,101.698665 C244.742363,99.6715849 248.460674,97.9448132 252.540702,97.171861 C255.578915,96.6270491 258.676709,96.4893233 261.751623,96.7623499 C265.631079,97.0728958 268.780243,98.9208146 271.601977,101.451252 C272.657985,102.401659 273.659134,103.418611 274.687713,104.40485 L274.687713,110.206257 C272.243125,112.103659 269.657964,112.06612 266.997374,110.718146 C266.00651,110.218202 265.007074,109.719963 264.067639,109.132997 C262.020768,107.853275 260.141898,107.93859 258.137884,109.356522 C255.013012,111.551527 252.083364,114.009668 249.381252,116.703833 C246.526946,119.568705 243.670927,122.428457 240.710335,125.185832 C235.037724,130.47535 228.775395,134.853706 221.565059,137.824367 C221.604488,133.841872 220.814197,129.995881 219.648475,126.209609 C219.175328,124.673943 218.162179,124.15011 216.634739,124.655174 C216.563273,124.411894 216.478576,124.172659 216.381023,123.938529 C214.095293,119.027809 211.804992,114.118795 209.510119,109.211487 C208.639255,107.334561 207.795821,105.449104 206.938672,103.567059 C208.356396,102.388008 208.440397,101.318161 207.195817,99.95483 C206.60267,99.3030249 205.987237,98.6682827 205.366661,98.0403657 C201.795779,94.4230178 197.774037,91.324384 193.824296,88.1438479 C185.73624,81.6275028 176.929893,76.3704043 167.081253,72.8963853 C164.418949,71.9647476 161.677787,71.3146487 158.941768,70.6508995 C160.534351,69.8898914 162.135505,69.1476526 163.717801,68.3661689 C165.301338,67.6188626 166.550805,66.3144437 167.225254,64.7044573 C169.818987,58.7409522 172.507005,52.8166919 173.964158,46.4470882 C174.975594,42.0107182 175.623598,37.5265718 176.129316,33.0134184 C177.139037,24.000762 178.645905,15.0973086 181.957928,6.58459695 C182.300787,5.7109733 182.671076,4.85270633 183.032792,3.98761417 C183.754512,2.25060466 184.889377,0.880448827 186.588246,-2.09183781e-11 L190.016841,-2.09183781e-11 Z M89.7304318,-2.10036433e-11 C91.7224456,1.02377771 92.7510242,2.78126277 93.6133159,4.76397893 C96.6219081,11.6727721 98.13049,18.9603631 99.3304983,26.3332689 C100.13279,31.2815278 100.530507,36.2963323 101.312226,41.2565353 C102.354519,47.8411322 104.473391,54.0708196 107.104838,60.1588843 C107.847129,61.8771246 108.669992,63.5629452 109.395139,65.2897169 C109.859714,66.3936905 110.627719,67.1666427 111.623726,67.7928534 C113.540311,68.9872607 115.63004,69.8267585 117.682054,70.7464521 C116.291759,71.0501728 114.89632,71.333418 113.511168,71.6610268 C108.539705,72.8349586 103.600814,74.0498415 99.0424963,76.4727821 C92.2607351,80.073067 86.3292654,84.7978011 80.7166551,89.9610533 C75.606334,94.6618993 71.1405888,99.9292356 66.7571299,105.293831 C62.4508143,110.566286 58.9227899,116.234602 56.5519163,122.61615 C54.8256186,127.262394 53.6993251,132.058793 52.8130333,136.921737 C49.0090069,135.307581 45.5084112,133.167885 42.2152456,130.707406 C36.7192075,126.593526 31.9037456,121.732288 27.0951409,116.865931 C24.2945414,114.023155 21.223577,111.45739 17.9253631,109.204662 C16.1253506,107.989779 14.4196245,107.875457 12.5870404,108.967486 C12.3916104,109.083515 12.187609,109.187599 11.9853219,109.293389 C10.7973137,109.907656 9.66073438,110.617475 8.41615433,111.134483 C5.76070737,112.240163 1.80582283,111.832358 0.430956166,108.160408 L0.430956166,106.112853 C3.5355491,102.036511 7.12700255,98.5710238 12.2596095,97.1786862 C15.0470574,96.4210907 17.9167916,96.5763636 20.7728113,96.7896506 C26.7402813,97.2401128 31.9928891,99.6289275 36.9077802,102.858946 C38.6975069,104.036291 40.2009459,105.58902 41.8672432,106.919931 C43.2525464,108.060455 44.8899827,108.857516 46.6449905,109.245613 C48.3884312,109.634648 50.0838715,110.081698 51.866741,109.699488 C53.7798971,109.28827 55.0021913,108.054618 55.7599108,106.310783 C55.7961741,106.232912 55.8126574,106.147364 55.8079112,106.061664 C55.576481,103.954388 55.0879062,101.778861 53.3838944,100.502551 C50.1970152,98.1137365 48.2410016,95.0424034 47.3512812,91.2885518 C46.2369877,86.5604051 45.294124,81.7776569 45.5598402,76.8839994 C45.9369856,70.1219477 44.7026914,63.6056026 42.8752502,57.1489779 C41.796957,53.3234618 40.818093,49.4706451 39.0266521,45.8874231 C38.8278977,45.4786014 38.5553721,45.109604 38.2226465,44.7988061 C36.3814909,43.0925099 34.4511918,41.4988293 32.4677495,39.9546313 C32.0237464,39.613372 31.4888856,39.3779032 31.019168,39.0588258 C29.0682974,37.7313274 28.5454366,35.4858416 29.7214448,33.4519365 C30.3647935,32.3675647 31.320301,31.5003282 32.4643209,30.9624504 C33.0813767,30.6393143 33.8033587,30.5777893 34.4666205,30.7918208 C38.9392229,32.2626481 43.3586821,33.8631539 47.4867107,36.1666538 C49.8181554,37.4651452 51.5033099,39.4205606 53.0067489,41.5500182 C56.6222025,46.6689067 59.34965,52.2416701 61.458236,58.1335108 C63.4896787,63.7967078 65.6188363,69.4274851 67.7034221,75.0821507 C68.1302822,76.2526699 68.2588545,77.515329 68.987431,78.5817641 C69.3501042,79.1308491 69.9144033,79.516726 70.5594419,79.6567307 C73.0846023,80.2624659 76.3366248,78.7575126 77.5297759,76.3465161 C78.8249916,73.6877942 79.6546314,70.8284805 79.9829357,67.8918186 C80.3857957,64.5406529 80.9652283,61.2099628 81.395517,57.8605034 C81.7178049,55.3556606 81.937235,52.8371674 82.1806653,50.3220869 C82.5886681,46.1405237 83.0738143,41.9680608 83.6361039,37.8046981 C84.2179826,33.5519186 84.3861919,29.2531742 84.1383931,24.968232 C83.9806777,22.2381581 83.8401053,19.5234409 83.567532,16.8087236 C83.3686735,14.8311264 82.881813,12.8944802 82.6435256,10.9254144 C82.3006661,7.96328426 82.432667,5.02845483 83.8435339,2.28643688 C84.3989663,1.21658917 85.2732581,0.534070703 86.3018367,-2.10036433e-11 L89.7304318,-2.10036433e-11 Z M108.853421,116.703833 C108.818949,117.214428 108.911922,117.686374 109.119444,118.100552 C109.520455,118.903562 110.350929,119.489703 111.51744,119.720565 C113.045727,120.022109 114.576096,120.305078 116.108662,120.567971 C123.677532,121.871043 131.296735,122.679556 138.990064,122.814634 L140.25311,122.830106 C140.673847,122.833631 141.094788,122.835124 141.515933,122.834555 C143.115373,122.834555 144.716527,122.882332 146.315967,122.824318 C151.258287,122.653688 156.157749,122.094023 160.974925,120.947392 C162.677223,120.541293 163.613229,119.123361 163.265227,117.51603 C162.997468,116.271851 161.93266,115.430101 160.641268,115.383217 C160.360727,115.371807 160.070243,115.397883 159.774917,115.465062 C156.439023,116.23274 153.049173,116.746117 149.634847,117.000729 C139.155346,117.754912 128.758131,116.908589 118.412345,115.250069 C116.274616,114.907103 114.157458,114.431047 112.0163,114.115382 C110.331146,113.866263 108.966565,115.050432 108.853421,116.703833 Z M99.0304962,90.5974479 C95.6927588,90.6111522 92.3447357,93.9708494 92.3738787,97.2776513 C92.3932402,99.5259475 94.0617441,101.205935 96.2360136,101.262081 L96.4412982,101.262551 L96.6493369,101.253321 C99.8207874,101.038328 102.769379,98.1939324 103.077953,95.0492285 C103.321383,92.5614487 101.526514,90.5855577 99.0304962,90.5974479 Z M172.530908,94.5931766 L172.531005,94.6294797 C172.531005,97.6247275 175.177024,100.577998 178.269843,101.154904 L178.492159,101.192039 C178.566062,101.203049 178.640178,101.212681 178.714477,101.220902 C178.854864,101.236305 178.993478,101.245555 179.130087,101.248866 L179.333469,101.249433 L179.533672,101.241187 C180.078889,101.20676 180.586179,101.075146 181.039383,100.861147 C182.40168,100.218639 183.275288,98.8313718 183.221365,97.1001965 C183.124196,93.9802728 180.183105,90.9141264 177.052575,90.6171095 L176.833892,90.6009144 C174.386162,90.468488 172.537548,92.1858394 172.530908,94.5931766 Z" id="Combined-Shape" fill="#FFFFFF"></path>
                        <path d="M139.417443,170.329244 C140.409477,170.072492 141.399946,170.231707 142.390416,170.329244 L139.417443,170.329244 Z" id="Path" fill="#4A90E1"></path>
                    </g>
                </g>
            </g>
        </g>
    </g>
</svg>