<?xml version="1.0" encoding="UTF-8"?>
<svg width="547px" height="585px" viewBox="0 0 547 585" version="1.1" xmlns="http://www.w3.org/2000/svg" xmlns:xlink="http://www.w3.org/1999/xlink">
    <title>axol pink circle</title>
    <defs>
        <ellipse id="path-1" cx="191.579348" cy="191.614156" rx="191.420652" ry="191.385844"></ellipse>
    </defs>
    <g id="Page-1" stroke="none" stroke-width="1" fill="none" fill-rule="evenodd">
        <g id="axol-style-guide" transform="translate(-1390.000000, -310.000000)">
            <g id="axol-pink-circle" transform="translate(1390.000000, 310.000000)">
                <path d="M127.824859,582 C138.088512,582 144.538606,579.556825 147.175141,574.670476 C148.493409,571.851429 149.293785,569.36127 149.576271,567.2 C149.858757,565.03873 150,561.796825 150,557.474286 L150,458.378967 C149.990427,454.270153 149.849341,451.171132 149.576271,449.081905 C149.293785,446.920635 148.446328,444.430476 147.033898,441.611429 C145.621469,438.792381 143.126177,436.819048 139.548023,435.691429 C135.969868,434.56381 130.508475,434 123.163842,434 C109.416196,434 101.977401,439.262222 100.847458,449.786667 C99.5291902,447.907302 97.834275,445.980952 95.7627119,444.007619 C93.6911488,442.034286 90.0188324,439.92 84.7457627,437.664762 C79.472693,435.409524 73.6346516,434.281905 67.2316384,434.281905 C50.4708098,434.281905 35.0753296,441.658413 21.0451977,456.411429 C7.01506591,471.164444 0,488.360635 0,508 C0,527.639365 6.96798493,544.88254 20.9039548,559.729524 C34.8399247,574.576508 49.952919,582 66.2429379,582 C82.5329567,582 94.1619586,577.019683 101.129944,567.059048 C101.694915,571.945397 103.719397,575.657143 107.20339,578.194286 C110.687382,580.731429 117.561205,582 127.824859,582 Z M74.92,532 C68.0133333,532 62.1333333,529.526667 57.28,524.58 C52.4266667,519.633333 50,514.08 50,507.92 C50,501.76 52.2866667,496.066667 56.86,490.84 C61.4333333,485.613333 67.4066667,483 74.78,483 C82.1533333,483 88.0333333,485.613333 92.42,490.84 C96.8066667,496.066667 99,501.713333 99,507.78 C99,513.846667 96.7133333,519.4 92.14,524.44 C87.5666667,529.48 81.8266667,532 74.92,532 Z M280.724395,584 C285.410925,584 291.128492,580.65342 297.877095,573.960259 C304.625698,567.267098 308,561.516636 308,556.708872 C308,551.901109 304.625698,546.103512 297.877095,539.316081 L297.877095,539.316081 L266.664804,507.641405 L297.877095,475.966728 C304.625698,469.179298 308,463.381701 308,458.573937 C308,453.766174 304.625698,447.968577 297.877095,441.181146 C291.128492,434.393715 285.410925,431 280.724395,431 C276.037865,431 270.320298,434.393715 263.571695,441.181146 L263.571695,441.181146 L232.640596,472.855823 L201.428305,441.181146 C194.679702,434.393715 189.009001,431 184.416201,431 C179.823402,431 174.105835,434.393715 167.263501,441.181146 C160.421167,447.968577 157,453.766174 157,458.573937 C157,463.381701 160.374302,469.179298 167.122905,475.966728 L167.122905,475.966728 L198.335196,507.641405 L167.122905,539.316081 C160.374302,546.103512 157,551.901109 157,556.708872 C157,561.516636 160.421167,567.267098 167.263501,573.960259 C174.105835,580.65342 179.823402,584 184.416201,584 C189.009001,584 194.679702,580.606285 201.428305,573.818854 L201.428305,573.818854 L232.640596,542.426987 L263.571695,573.818854 C270.320298,580.606285 276.037865,584 280.724395,584 Z M382.5,585 C394.9,585 406.877273,582.142944 418.431818,576.428832 C429.986364,570.71472 439.80303,561.815693 447.881818,549.731752 C455.960606,537.64781 460,523.8309 460,508.281022 C460,485.79927 452.20303,467.298662 436.609091,452.779197 C421.015152,438.259732 403.072727,431 382.781818,431 C362.490909,431 344.454545,438.306569 328.672727,452.919708 C312.890909,467.532847 305,486.080292 305,508.562044 C305,523.549878 308.992424,536.992092 316.977273,548.888686 C324.962121,560.78528 334.778788,569.777981 346.427273,575.866788 C358.075758,581.955596 370.1,585 382.5,585 Z M382.219388,535 C376.045918,535 369.965986,532.755102 363.979592,528.265306 C357.993197,523.588435 355,516.713435 355,507.640306 C355,498.567177 357.89966,491.692177 363.69898,487.015306 C369.498299,482.338435 375.765306,480 382.5,480 C389.234694,480 395.501701,482.244898 401.30102,486.734694 C407.10034,491.22449 410,498.052721 410,507.219388 C410,516.386054 406.913265,523.307823 400.739796,527.984694 C394.566327,532.661565 388.392857,535 382.219388,535 Z M506.235294,581.645012 C524.730392,583.903326 536.431373,583.338747 541.338235,579.951276 C545.112745,577.316576 547,570.071152 547,558.215004 C547,547.29982 545.112745,540.618974 541.338235,538.172467 C539.45098,536.855117 537.846814,536.055298 536.525735,535.773009 C535.204657,535.490719 532.609681,535.349575 528.740809,535.349575 C524.871936,535.349575 522.371324,534.455659 521.238971,532.667827 C520.106618,530.879995 519.540441,526.598608 519.540441,519.823666 L519.540441,389.123743 C519.540441,384.795308 519.398897,381.501933 519.115809,379.243619 C518.832721,376.985305 517.936275,374.444702 516.426471,371.62181 C513.595588,366.540603 506.42402,364 494.911765,364 C482.833333,364 475.473039,366.540603 472.830882,371.62181 C471.509804,374.444702 470.707721,376.938257 470.424632,379.102475 C470.141544,381.266692 470,384.513019 470,388.841454 L470,523.211137 C470,543.34777 472.642157,558.026811 477.926471,567.24826 C482.267157,574.964166 491.703431,579.763083 506.235294,581.645012 Z" id="axol-copy" fill="#000000" fill-rule="nonzero"></path>
                <g id="Group-4-Copy" transform="translate(78.000000, 0.000000)">
                    <g id="FINAL-Copy-2">
                        <mask id="mask-2" fill="white">
                            <use xlink:href="#path-1"></use>
                        </mask>
                        <use id="Oval-Copy" fill="#E2BFC3" xlink:href="#path-1"></use>
                        <path d="M334.612729,202.982201 C334.621053,97.2779123 248.929752,11.5944032 143.215851,11.6027272 C37.50195,11.6110513 -48.202847,97.3080565 -48.2111711,203.012346 C63.1842509,203.003574 185.011953,201.938074 334.612729,202.982201 Z" id="Oval" fill-opacity="0.25" fill="#E28489" mask="url(#mask-2)" transform="translate(143.200779, 107.307536) scale(-1, 1) rotate(30.000000) translate(-143.200779, -107.307536) "></path>
                    </g>
                    <g id="Asset-1" transform="translate(25.000000, 88.000000)" fill-rule="nonzero">
                        <path d="M166.898784,87.5867771 C174.511811,87.8690644 182.126889,88.2434018 189.625065,89.6896126 C197.180666,91.1480966 204.205078,94.0732471 210.993635,97.6366122 C219.724415,102.214575 227.417428,108.240794 234.960724,114.485888 C238.303729,117.25353 241.535984,120.135724 244.433939,123.371799 C245.315836,124.355714 246.355654,124.558224 247.565699,124.167522 C248.59116,126.417638 249.604316,128.686164 250.642084,130.934234 C253.376648,136.821355 256.116682,142.70643 258.862184,148.58946 C258.980282,148.870059 259.08298,149.156862 259.169823,149.448595 C257.869537,150.395689 257.594714,151.154592 258.056171,152.701035 C259.157517,156.395316 260.055822,160.128462 260.107095,164.008889 C260.139909,166.054449 259.930715,168.100009 259.112397,170.00647 C258.626328,171.145847 258.019255,172.201356 256.868687,172.825252 C256.724614,172.913354 256.599205,173.028706 256.499521,173.164815 C251.782397,179.158305 245.795752,183.633989 239.220492,187.363045 C229.630375,192.802188 219.24655,195.809161 208.345893,197.151048 C194.336035,198.875455 180.266702,198.959323 166.185062,198.644307 C155.832002,198.411113 145.495348,197.864949 135.168949,197.130593 C117.891247,195.909488 100.963499,191.667154 85.1592357,184.597448 C80.5323527,182.539615 76.2131082,179.915162 72.6055342,176.284293 C70.3043982,173.96872 68.573419,171.327902 68.0770955,168.01205 C67.7735589,165.96649 68.2186092,164.01298 68.600081,162.043106 C69.9783014,154.934786 72.0866506,148.073979 75.3947898,141.601828 C77.7471989,136.995227 80.8605004,132.922518 84.0701954,128.886628 C88.9411382,122.764268 94.0499881,116.875102 99.802828,111.556646 C106.230422,105.61225 113.016927,100.16697 120.791977,96.0247111 C125.66292,93.4288958 130.948149,92.1381476 136.241582,90.8412627 C146.311616,88.3743176 156.529315,87.2001663 166.898784,87.5867771 Z M227.329239,-1.58852133e-11 C230.30923,1.43189182 231.135752,4.14225848 231.636177,7.08172783 C232.251454,10.5837261 231.636177,13.9977653 230.983984,17.4118045 C230.33179,20.8258438 230.26411,24.2460196 230.024152,27.6723322 C229.734286,31.6140582 229.704826,35.5705381 229.935962,39.5161231 C230.141054,42.9547091 230.713262,46.3442016 231.084479,49.7602863 C231.525428,53.8186769 232.06277,57.8688852 232.415528,61.9354579 C232.876986,67.227321 233.615318,72.4803184 234.382364,77.7312703 C234.687951,79.8197868 234.979182,81.9083033 235.303228,83.9906831 C235.756736,86.7881341 236.689869,89.4867976 238.06172,91.9683661 C239.439941,94.5069057 243.121348,96.0492578 245.838821,95.5767335 C247.623125,95.267854 248.39017,94.0405181 248.810609,92.5738518 C250.022705,88.3456798 251.630629,84.2545603 253.170872,80.1429852 C255.496619,73.9285747 257.602917,67.6282507 260.349104,61.5795305 C261.942671,58.0734411 263.956678,54.7882722 265.968633,51.5010577 C268.979389,46.5794409 273.118152,43.0876705 278.491571,40.9643794 C281.853034,39.6347656 285.19809,38.2683317 288.629285,37.1248638 C291.125259,36.2902754 293.814019,37.6485271 295.206596,40.4345795 C296.363317,42.7481075 295.729581,45.3889252 293.477668,46.7921792 C290.354111,48.7354609 287.692013,51.2228616 284.945827,53.618212 C284.487692,54.0264265 284.116626,54.5224382 283.854736,55.0766961 C281.707419,59.4071461 280.485069,64.0505667 279.246311,68.6837595 L278.786018,70.403094 C277.792461,74.1312761 276.848508,77.8829144 276.446801,81.7405674 C276.120704,84.8559549 275.831524,87.977479 276.059176,91.1153677 C276.358611,95.1205737 275.854084,99.068504 275.20189,103.004161 L274.996109,104.26224 C274.515728,107.198485 274.001587,110.131402 272.777699,112.884214 C271.432293,115.893233 269.598768,118.51564 266.772595,120.34028 C266.384005,120.620077 266.059603,120.979194 265.820967,121.393743 C265.000598,122.664036 264.518631,124.079563 264.032562,125.501227 C263.56085,126.88198 263.936168,128.019311 264.793454,129.105503 C266.924364,131.805642 269.7813,132.065428 272.853583,131.447669 C273.983642,131.220612 275.089089,130.850366 276.225301,130.613081 C277.738882,130.296019 278.936621,129.36938 280.122055,128.448879 C282.927718,126.284676 285.394979,123.686816 288.510331,121.919452 C292.800863,119.489327 297.249316,117.41922 302.130513,116.492582 C305.76532,115.839445 309.471408,115.674335 313.150124,116.001648 C317.791363,116.373939 321.558909,118.589281 324.934729,121.622846 C326.198098,122.762222 327.395837,123.981376 328.626391,125.16371 L328.626391,132.118613 C325.701774,134.393275 322.608982,134.348273 319.425949,132.732281 C318.240516,132.132932 317.044827,131.535628 315.920921,130.831956 C313.472119,129.297786 311.224307,129.400064 308.826778,131.099924 C305.088294,133.731363 301.58337,136.678257 298.350661,139.908104 C294.935874,143.342599 291.519036,146.770957 287.977091,150.076582 C281.190586,156.417817 273.698563,161.666723 265.07238,165.228043 C265.119551,160.453706 264.174076,155.843015 262.779448,151.303918 C262.213393,149.462914 261.001297,148.834927 259.173925,149.440413 C259.088425,149.148761 258.987097,148.86196 258.870388,148.581278 C256.135824,142.694157 253.39579,136.809081 250.650287,130.926051 C249.608418,128.675936 248.599364,126.415592 247.573902,124.15934 C249.270016,122.745858 249.370511,121.463292 247.881541,119.82889 C247.171921,119.047486 246.43564,118.286538 245.693206,117.533772 C241.421133,113.197185 236.609666,109.482449 231.884339,105.669525 C222.208083,97.8575326 211.67249,91.555163 199.889936,87.3904034 C196.704852,86.2735278 193.425426,85.4941695 190.152152,84.6984468 C192.05746,83.7861271 193.973022,82.8963086 195.866024,81.9594423 C197.76051,81.0635488 199.255327,79.4997717 200.062213,77.5696711 C203.16526,70.4204398 206.381108,63.3182563 208.124393,55.6821818 C209.334438,50.3637265 210.109687,44.9879955 210.714709,39.5774899 C211.922703,28.7728434 213.725464,18.0991126 217.687848,7.89381505 C218.098033,6.84648846 218.541032,5.81757191 218.973777,4.78047312 C219.837216,2.6980933 221.194927,1.05550883 223.227392,-1.58852133e-11 L227.329239,-1.58852133e-11 Z M107.350226,-1.59846893e-11 C109.733399,1.22733585 110.963953,3.33426238 111.995567,5.71120281 C115.594937,13.9936742 117.39975,22.7302599 118.835396,31.5691235 C119.795228,37.5012468 120.271042,43.5131469 121.206264,49.4595891 C122.453225,57.3534041 124.988166,64.8217427 128.136333,72.1202999 C129.024383,74.1801786 130.008826,76.2011916 130.876367,78.2712981 C131.432167,79.5947752 132.350981,80.5214138 133.542567,81.2721342 C135.835499,82.704026 138.335575,83.7104414 140.79053,84.8129981 C139.127231,85.1771078 137.45778,85.5166707 135.800634,85.9094181 C129.852956,87.3167632 123.944246,88.7732018 118.490841,91.6778966 C110.377389,95.9940277 103.281194,101.658183 96.566471,107.848046 C90.4526687,113.483563 85.1100135,119.798206 79.8658026,126.229446 C74.7138833,132.550226 70.4930832,139.345575 67.6566562,146.995969 C65.5913765,152.566028 64.2439199,158.316096 63.1835925,164.145942 C58.6325937,162.210842 54.4446084,159.64571 50.5047847,156.696013 C43.9295246,151.764169 38.1684811,145.936369 32.4156412,140.102432 C29.0651059,136.694425 25.3911157,133.618509 21.4452525,130.917869 C19.2917831,129.461431 17.2511144,129.324378 15.0586774,130.633536 C14.8248721,130.772634 14.5808123,130.897414 14.3388033,131.024238 C12.9175135,131.76064 11.5577513,132.611593 10.068781,133.231397 C6.89190081,134.55692 2.16042077,134.068031 0.515580286,129.665987 L0.515580286,127.211315 C4.22980238,122.324473 8.52648668,118.169941 14.666951,116.500764 C18.0017523,115.592536 21.4349979,115.778682 24.8518361,116.034376 C31.9911001,116.574404 38.2751291,119.438188 44.1551262,123.310433 C46.2962901,124.721869 48.0949498,126.583328 50.0884473,128.178865 C51.7457736,129.546159 53.7047429,130.5017 55.8043705,130.966963 C57.8901595,131.43335 59.9185226,131.969287 62.0514829,131.511082 C64.3403133,131.018102 65.8026216,129.539162 66.7091297,127.4486 C66.7525137,127.355245 66.7722338,127.252688 66.7665555,127.149948 C66.4896809,124.623682 65.9051677,122.015593 63.86655,120.485515 C60.0538836,117.621731 57.7137801,113.939723 56.6493509,109.439492 C55.3162508,103.771246 54.188243,98.0375419 54.5061361,92.1708765 C54.9573392,84.0643233 53.4806744,76.2523306 51.2943902,68.5119325 C50.0043594,63.9257876 48.8332822,59.3069137 46.6900674,55.0112382 C46.4522849,54.5211303 46.1262451,54.078765 45.7281844,53.7061711 C43.5254927,51.6606113 41.2161531,49.7500585 38.8432349,47.898827 C38.3120457,47.489715 37.6721576,47.2074278 37.1102047,46.8249081 C34.776254,45.2334626 34.1507223,42.541506 35.5576557,40.1031988 C36.3273348,38.8032209 37.4704692,37.7635513 38.839133,37.1187271 C39.5773561,36.7313418 40.4411091,36.6575837 41.2346114,36.9141711 C46.5854703,38.6774436 51.8727506,40.5961787 56.8113739,43.3576843 C59.6006295,44.9143553 61.6166871,47.2585668 63.4153469,49.8114253 C67.7407441,55.9481046 71.0037631,62.6289027 73.5263987,69.6922205 C75.9567428,76.4814333 78.5039896,83.2317804 80.9979123,90.0107654 C81.5085922,91.4140194 81.6624114,92.9277336 82.5340538,94.2062085 C82.9679428,94.8644682 83.6430498,95.3270692 84.4147505,95.4949111 C87.4357605,96.2210848 91.326362,94.4169011 92.7538046,91.5265252 C94.3033536,88.3391684 95.2959045,84.9113362 95.6886759,81.3907767 C96.1706428,77.3732973 96.8638549,73.3803647 97.3786367,69.3649309 C97.7642102,66.3620492 98.0267284,63.342803 98.3179595,60.327648 C98.8060793,55.3146629 99.3864906,50.3125875 100.059193,45.3214217 C100.755332,40.2230604 100.956571,35.0695948 100.660114,29.9326757 C100.471429,26.6597801 100.303253,23.4052946 99.9771565,20.150809 C99.7392494,17.7800053 99.1567872,15.458295 98.8717088,13.097719 C98.4615242,9.54662733 98.6194452,6.02826457 100.307355,2.74105006 C100.971854,1.4584841 102.017825,0.6402602 103.248379,-1.59846893e-11 L107.350226,-1.59846893e-11 Z M130.228275,139.908104 C130.193702,140.421248 130.26628,140.901829 130.436919,141.336346 C130.865568,142.426731 131.905051,143.225126 133.41541,143.524654 C135.561675,143.949004 137.711373,144.342668 139.864724,144.702738 C149.131972,146.258314 158.463661,147.185116 167.889872,147.25394 L169.304517,147.2578 C171.218028,147.2578 173.13359,147.315076 175.047102,147.245527 C180.959914,147.040971 186.821453,146.370028 192.584547,144.995411 C194.621114,144.508568 195.740918,142.808708 195.324581,140.881791 C195.023302,139.478973 193.878554,138.5029 192.458109,138.344962 C192.352732,138.333378 192.245903,138.325825 192.137787,138.322902 L192.121674,138.323136 L191.929551,138.322997 C191.67452,138.330078 191.413333,138.362752 191.148901,138.423028 C187.157958,139.343343 183.102465,139.958795 179.017689,140.264032 C166.480395,141.168169 154.041545,140.153571 141.664223,138.165287 C139.106722,137.75413 136.573832,137.183419 134.012229,136.80499 C131.996171,136.506338 130.363636,137.925957 130.228275,139.908104 Z M118.476485,108.610976 C114.483337,108.627405 110.477884,112.655112 110.512749,116.619407 C110.536098,119.33633 112.564166,121.360984 115.195912,121.397305 L115.410592,121.395863 L115.627752,121.385561 C119.42196,121.12782 122.949548,117.717872 123.318715,113.947906 C123.327991,113.850858 123.334698,113.754463 123.338891,113.658781 C123.469311,110.813845 121.365461,108.597185 118.476485,108.610976 Z M206.410537,113.318553 L206.409821,113.444698 C206.409821,117.128112 209.740832,120.758573 213.5629,121.315359 L213.807501,121.346695 L213.807501,121.346695 C214.024279,121.370528 214.237523,121.382075 214.446638,121.381881 L214.654355,121.377841 C217.336211,121.274651 219.286805,119.219265 219.199379,116.406668 C219.080425,112.579426 215.399018,108.819687 211.557638,108.615131 C208.657286,108.457894 206.460042,110.475987 206.410537,113.318553 Z" id="Combined-Shape" fill="#FFFFFF"></path>
                        <path d="M166.793959,204.195878 C167.980792,203.888075 169.165754,204.078947 170.350715,204.195878 L166.793959,204.195878 Z" id="Path" fill="#4A90E1"></path>
                    </g>
                </g>
            </g>
        </g>
    </g>
</svg>