<?xml version="1.0" encoding="UTF-8"?>
<svg width="401px" height="402px" viewBox="0 0 401 402" version="1.1" xmlns="http://www.w3.org/2000/svg" xmlns:xlink="http://www.w3.org/1999/xlink">
    <!-- Generator: Sketch 64 (93537) - https://sketch.com -->
    <title>blue circle icon</title>
    <desc>Created with Sketch.</desc>
    <g id="Page-1" stroke="none" stroke-width="1" fill="none" fill-rule="evenodd">
        <g id="axol-style-guide" transform="translate(-2831.000000, -1511.000000)">
            <g id="blue-circle-icon" transform="translate(2758.000000, 1438.000000)">
                <g id="FINAL-Copy-2">
                    <ellipse id="Oval-Copy" fill="#A8D8E4" cx="274.08287" cy="275.119223" rx="199.91713" ry="199.880777"></ellipse>
                    <path d="M423.464991,286.991855 C423.473685,176.595731 333.978853,87.1090373 223.57269,87.1177308 C113.166527,87.1264243 23.657601,176.627213 23.6489075,287.023337 C139.988774,287.014177 267.223972,285.901382 423.464991,286.991855 Z" id="Oval" fill-opacity="0.25" fill="#326F7E" transform="translate(223.556949, 187.070534) scale(-1, 1) rotate(30.000000) translate(-223.556949, -187.070534) "></path>
                </g>
                <g id="Asset-1" transform="translate(100.376026, 166.879350)" fill-rule="nonzero">
                    <path d="M174.19742,91.596607 C182.143372,91.8918177 190.091465,92.2832927 197.917542,93.7957127 C205.803557,95.320968 213.135153,98.3800354 220.220579,102.106536 C229.333165,106.894083 237.3626,113.19619 245.235772,119.727192 C248.724969,122.62154 252.098574,125.635684 255.123259,129.019911 C256.043722,130.04887 257.129012,130.260652 258.391973,129.852063 C259.462279,132.205192 260.519742,134.577574 261.602891,136.928563 C264.457041,143.085204 267.316898,149.239705 270.182464,155.392067 C270.305727,155.685513 270.412916,155.985445 270.503556,156.290534 C269.146408,157.280988 268.859566,158.074634 269.341204,159.691875 C270.490713,163.555285 271.428301,167.459339 271.481816,171.517417 C271.516066,173.656625 271.297723,175.795833 270.443619,177.789575 C269.936294,178.981113 269.302673,180.084945 268.101789,180.737403 C267.951416,180.829539 267.820523,180.950172 267.716479,181.092512 C262.793072,187.360391 256.544625,192.040978 249.681823,195.940754 C239.672321,201.628908 228.834402,204.773544 217.457049,206.176864 C202.834528,207.980217 188.149929,208.067924 173.452487,207.738486 C162.646678,207.494616 151.857993,206.923448 141.080011,206.155472 C123.046739,204.878464 105.378725,200.441911 88.8833269,193.048545 C84.0541062,190.896502 79.5459772,188.151898 75.7806406,184.354804 C73.3788739,181.93322 71.5721973,179.171503 71.0541692,175.703847 C70.7373586,173.564639 71.2018714,171.521695 71.6000253,169.461638 C73.0385166,162.02789 75.2390657,154.852987 78.691873,148.084533 C81.147155,143.267036 84.3966041,139.007873 87.7466619,134.787216 C92.8306156,128.384566 98.1628802,122.225787 104.167297,116.663846 C110.875975,110.447308 117.95926,104.752736 126.074321,100.42084 C131.158274,97.7061849 136.674632,96.3563447 142.199551,95.0000868 C152.709956,92.420202 163.374486,91.1922966 174.19742,91.596607 Z M237.270554,-8.34833311e-12 C240.380863,1.49744558 241.24353,4.33189614 241.765839,7.405938 C242.408023,11.068262 241.765839,14.6386002 241.085125,18.2089383 C240.40441,21.7792764 240.33377,25.3560321 240.083318,28.9392054 C239.780776,33.0613884 239.750028,37.1990008 239.991272,41.3252196 C240.205333,44.9212282 240.802564,48.4658958 241.190015,52.0383731 C241.650246,56.2825617 242.211087,60.5181935 242.579272,64.770939 C243.06091,70.30507 243.83153,75.7985561 244.632119,81.2899029 C244.95107,83.4740343 245.255037,85.6581656 245.593254,87.8358793 C246.066594,90.7614011 247.040534,93.5836127 248.472377,96.1787904 C249.910868,98.8335475 253.753267,100.44651 256.589578,99.9523533 C258.45191,99.6293329 259.252499,98.3458081 259.691325,96.811996 C260.956426,92.3902531 262.634666,88.1118372 264.242266,83.8120291 C266.66972,77.3131153 268.868129,70.7243548 271.734408,64.3987168 C273.397664,60.7321143 275.499745,57.2965463 277.599685,53.8588391 C280.742104,48.7119047 285.061859,45.0602767 290.670262,42.8397788 C294.178725,41.4492937 297.670064,40.0203027 301.251308,38.8244855 C303.856433,37.9516886 306.662775,39.3721227 308.116251,42.285724 C309.323556,44.7051682 308.662107,47.4668857 306.311715,48.9343824 C303.051562,50.9666299 300.273048,53.5679068 297.406768,56.0729194 C296.928599,56.4998224 296.541306,57.0185421 296.267963,57.5981746 C294.026742,62.1268779 292.750937,66.98288 291.458008,71.8281861 C290.257124,76.3205228 289.01985,80.827834 288.536072,85.4827506 C288.195715,88.7407643 287.893888,92.0051957 288.131496,95.2867407 C288.444026,99.4753099 287.917435,103.603981 287.236721,107.719817 C286.658755,111.225979 286.166415,114.76209 284.706517,118.052192 C283.302276,121.198967 281.388568,123.941431 278.438805,125.849605 C278.033222,126.142212 277.694633,126.51777 277.445561,126.951297 C276.589316,128.279745 276.086272,129.760077 275.578947,131.246827 C275.086607,132.690792 275.478339,133.880192 276.373114,135.016111 C278.59721,137.839866 281.579083,138.111545 284.78572,137.465504 C285.965197,137.228052 287.118987,136.840856 288.304886,136.592707 C289.884658,136.26113 291.134775,135.292069 292.372049,134.329425 C295.300406,132.066143 297.875562,129.349349 301.127152,127.501074 C305.605313,124.959694 310.2483,122.794816 315.342957,121.825755 C319.136717,121.142716 323.004876,120.970048 326.844465,121.312345 C331.68867,121.701681 335.620975,124.018443 339.144422,127.190888 C340.463039,128.382427 341.713157,129.657395 342.997524,130.893857 L342.997524,138.167165 C339.945011,140.545964 336.716968,140.498901 333.394738,138.808927 C332.157464,138.182139 330.909488,137.55749 329.736432,136.821603 C327.180541,135.217197 324.834431,135.324157 322.332055,137.101839 C318.430084,139.853748 314.771886,142.935555 311.397809,146.313268 C307.83369,149.904999 304.26743,153.490311 300.570593,156.947271 C293.487308,163.578816 285.667652,169.068024 276.664238,172.792385 C276.713472,167.799473 275.72665,162.977699 274.271033,158.230796 C273.680224,156.305509 272.415123,155.648772 270.507837,156.281978 C270.418599,155.976974 270.312839,155.677043 270.191027,155.38351 C267.336877,149.22687 264.47702,143.072368 261.611454,136.920006 C260.524023,134.566877 259.470842,132.203053 258.400536,129.843506 C260.170822,128.365314 260.275712,127.02403 258.721627,125.314803 C257.980976,124.497626 257.212496,123.70184 256.437594,122.914612 C251.9787,118.379491 246.956824,114.494689 242.024854,110.507205 C231.925446,102.33757 220.929122,95.7466704 208.631306,91.391243 C205.306935,90.2232354 201.884096,89.4081972 198.46768,88.5760453 C200.456308,87.6219585 202.45564,86.6914031 204.431425,85.7116458 C206.408758,84.7747372 207.968945,83.1393685 208.811117,81.1209055 C212.049863,73.6443736 215.406343,66.2170436 217.225863,58.2313802 C218.488824,52.6694395 219.297975,47.0476009 219.929456,41.3893958 C221.190276,30.0900993 223.071874,18.9277121 227.207537,8.25520356 C227.635659,7.15992908 228.098032,6.08390747 228.549701,4.99932903 C229.450898,2.82161532 230.867984,1.10383131 232.98933,-8.34833311e-12 L237.270554,-8.34833311e-12 Z M112.044749,-8.44780909e-12 C114.532141,1.28352478 115.816508,3.48690899 116.893236,5.97266866 C120.65001,14.6343217 122.533748,23.770879 124.032177,33.0143966 C125.033983,39.2180998 125.530605,45.505232 126.506724,51.7239096 C127.808216,59.9791131 130.454013,67.7893614 133.739852,75.4220555 C134.666737,77.5762379 135.694231,79.6897754 136.59971,81.8546538 C137.179816,83.2387214 138.13881,84.2077826 139.382506,84.9928719 C141.77571,86.4903175 144.385116,87.5428078 146.947429,88.6958409 C145.211392,89.07662 143.468934,89.4317285 141.73932,89.8424564 C135.531545,91.3142315 129.364441,92.8373476 123.672554,95.8750229 C115.204293,100.388752 107.797775,106.312219 100.789411,112.785462 C94.4082466,118.67898 88.8319523,125.282715 83.3584072,132.008385 C77.9811898,138.618537 73.5758102,145.724986 70.6153437,153.725624 C68.4597474,159.550687 67.0533653,165.564001 65.9466688,171.660744 C61.1966507,169.637053 56.8255209,166.954486 52.7134052,163.869748 C45.8506029,158.712118 39.8376237,152.617514 33.8332069,146.516493 C30.3361495,142.952463 26.5014924,139.735728 22.383073,136.911449 C20.1354304,135.388333 18.0055214,135.245006 15.7172071,136.6141 C15.4731773,136.759566 15.2184445,136.890057 14.9658523,137.022688 C13.4824081,137.792803 12.0631824,138.682714 10.509098,139.330894 C7.19328994,140.7171 2.25489795,140.20583 0.538127084,135.602254 L0.538127084,133.035205 C4.4147755,127.924637 8.89935775,123.579905 15.3083502,121.834312 C18.7889854,120.884503 22.37237,121.079171 25.9386297,121.346572 C33.3901002,121.911323 39.9489355,124.906214 46.0860703,128.955735 C48.3208692,130.431788 50.198186,132.378468 52.2788609,134.04705 C54.0086637,135.476941 56.0533005,136.476228 58.2447467,136.96279 C60.4217491,137.45053 62.5388145,138.011002 64.765051,137.53182 C67.153974,137.016271 68.6802304,135.469623 69.626381,133.283353 C69.6716622,133.185724 69.6922447,133.078471 69.6863181,132.971028 C69.3973355,130.329106 68.787261,127.601616 66.6594927,126.001489 C62.6800949,123.006598 60.2376565,119.156023 59.1266789,114.449766 C57.735281,108.52202 56.5579444,102.52582 56.8897393,96.390572 C57.3606739,87.9128908 55.8194332,79.7432556 53.5375408,71.6484926 C52.1910958,66.8523883 50.9688063,62.0220567 48.7318667,57.52972 C48.4836858,57.0171744 48.143388,56.554557 47.7279197,56.1649053 C45.4289024,54.0256973 43.0185732,52.0276771 40.541885,50.0916939 C39.9874665,49.6638523 39.3195956,49.3686416 38.7330679,48.9686097 C36.2970514,47.3043059 35.6441647,44.4891082 37.1126245,41.9391723 C37.9159624,40.5796798 39.1090871,39.4924129 40.5376038,38.8180679 C41.3081101,38.4129475 42.2096358,38.3358127 43.0378387,38.6041471 C48.6226955,40.4481443 54.1411934,42.4547214 59.2957872,45.3426522 C62.2070196,46.9705894 64.3112412,49.4221218 66.188558,52.0918533 C70.7031088,58.5094772 74.1088226,65.4961305 76.7417754,72.8828156 C79.2784007,79.9828469 81.9370408,87.0422332 84.5400251,94.1315684 C85.0730375,95.5990651 85.2335834,97.182079 86.1433435,98.5190839 C86.5962069,99.2074796 87.3008369,99.691259 88.1062848,99.866785 C91.2594063,100.626204 95.3201474,98.7394224 96.8100134,95.7167215 C98.4273256,92.3834436 99.4632816,88.7986811 99.8732292,85.116946 C100.376273,80.9155415 101.0998,76.7398076 101.637094,72.5405423 C102.039529,69.400185 102.313527,66.2427141 102.617494,63.0895215 C103.12696,57.8470358 103.732753,52.6159593 104.434873,47.3962918 C105.161455,42.0645213 105.371495,36.6751238 105.062073,31.3030303 C104.865136,27.8802975 104.689606,24.4768176 104.349249,21.0733377 C104.100938,18.5939957 103.493004,16.1659946 103.195459,13.6973486 C102.767337,9.98368361 102.932164,6.30424589 104.693888,2.86653868 C105.387446,1.52525528 106.479158,0.669572095 107.763525,-8.44780909e-12 L112.044749,-8.44780909e-12 Z M135.923277,146.313268 C135.888436,146.831399 135.957852,147.317786 136.122986,147.759718 C136.558603,148.924069 137.651636,149.777826 139.249788,150.095388 C141.383261,150.518038 143.519985,150.911579 145.660157,151.273386 C155.455439,152.935574 165.319145,153.9261 175.284101,153.99578 L176.708358,153.999443 C178.705549,153.999443 180.704881,154.059341 182.702072,153.986607 C188.873456,153.772687 194.991326,153.071026 201.006445,151.633479 C203.132073,151.124347 204.300847,149.346665 203.866303,147.331531 C203.543287,145.824547 202.291326,144.788478 200.752752,144.666983 C200.353759,144.634258 199.93494,144.662698 199.508017,144.760203 C195.342547,145.722652 191.109703,146.36628 186.846297,146.685491 C173.760735,147.631021 160.777923,146.569973 147.859329,144.490663 C145.189986,144.060682 142.54633,143.463843 139.872706,143.06809 C137.768484,142.755766 136.064557,144.240376 135.923277,146.313268 Z M123.65757,113.583319 C119.489798,113.6005 115.309183,117.812601 115.345573,121.958386 C115.370007,124.807185 117.497878,126.9282 120.255276,126.955279 L120.468601,126.953205 L120.68426,126.94274 C124.644392,126.6732 128.326245,123.10714 128.711555,119.16458 L128.715127,119.116 L128.728653,118.948042 C128.910805,115.931744 126.701819,113.568759 123.65757,113.583319 Z M220.586328,113.579615 L220.365296,113.579797 C217.517051,113.635119 215.422054,115.744769 215.436239,118.638335 L215.440637,118.874279 C215.576832,122.597155 218.90984,126.207828 222.756336,126.846568 C222.889865,126.868618 223.023443,126.887202 223.157499,126.902095 C223.378614,126.926453 223.596207,126.938539 223.809698,126.938887 L224.0218,126.935389 C226.831019,126.83677 228.87663,124.684126 228.785168,121.735908 C228.661012,117.73345 224.818614,113.801586 220.809247,113.587665 C220.734483,113.583595 220.660169,113.580919 220.586328,113.579615 Z" id="Combined-Shape" fill="#FFFFFF"></path>
                    <path d="M174.088011,213.544215 C175.326746,213.222321 176.563527,213.421931 177.800308,213.544215 L174.088011,213.544215 Z" id="Path" fill="#4A90E1"></path>
                </g>
            </g>
        </g>
    </g>
</svg>