<?xml version="1.0" encoding="UTF-8"?>
<svg width="500px" height="304px" viewBox="0 0 500 304" version="1.1" xmlns="http://www.w3.org/2000/svg" xmlns:xlink="http://www.w3.org/1999/xlink">
    <!-- Generator: Sketch 64 (93537) - https://sketch.com -->
    <title>solid icon</title>
    <desc>Created with Sketch.</desc>
    <g id="Page-1" stroke="none" stroke-width="1" fill="none" fill-rule="evenodd">
        <g id="axol-style-guide" transform="translate(-158.000000, -1573.000000)" fill="#A8D1A9" fill-rule="nonzero">
            <g id="solid-icon" transform="translate(158.000000, 1573.000000)">
                <path d="M253.547274,133.849645 C265.148579,134.281035 276.75301,134.853095 288.179295,137.063187 C299.69309,139.292035 310.39742,143.762234 320.742334,149.207749 C334.046955,156.203768 345.770149,165.413003 357.265192,174.956722 C362.359515,179.186219 367.28507,183.590772 371.701191,188.536125 C373.045093,190.039737 374.629646,190.349213 376.473603,189.752144 C378.036279,193.190759 379.580203,196.657508 381.161631,200.092997 C385.328766,209.089664 389.504236,218.083204 393.68804,227.073619 C393.868007,227.50243 394.024506,227.94072 394.156843,228.386545 C392.17537,229.833889 391.756573,230.99364 392.459777,233.356906 C394.138091,239.002487 395.506995,244.707461 395.585128,250.637509 C395.635134,253.763522 395.316348,256.889536 394.069333,259.80298 C393.328624,261.54417 392.40352,263.157193 390.650198,264.110627 C390.430649,264.245264 390.239542,264.421545 390.087635,264.629545 C382.899326,273.788764 373.776425,280.628482 363.756548,286.327205 C349.142404,294.639274 333.318748,299.234514 316.707505,301.285179 C295.358228,303.920408 273.918316,304.048575 252.459652,303.567169 C236.682877,303.210803 220.931105,302.376158 205.194959,301.253919 C178.865893,299.387833 153.070115,292.904721 128.986386,282.100834 C121.935593,278.956065 115.353602,274.945389 109.856109,269.396716 C106.349464,265.858068 103.711668,261.822385 102.955332,256.755117 C102.49278,253.629104 103.170982,250.643761 103.752297,247.63341 C105.852533,236.770513 109.065395,226.285864 114.106587,216.395157 C117.691365,209.355375 122.435649,203.131482 127.326824,196.963857 C134.749534,187.607699 142.534785,178.607906 151.301396,170.480271 C161.096248,161.396076 171.438037,153.074628 183.286245,146.744451 C190.708955,142.77754 198.762986,140.805025 206.829518,138.823133 C222.174995,135.05316 237.745496,133.258829 253.547274,133.849645 Z M345.635759,-1.00082085e-11 C350.176895,2.18820943 351.436412,6.33017729 352.198997,10.8222587 C353.136603,16.1739937 352.198997,21.3913102 351.205136,26.6086267 C350.211274,31.8259432 350.108137,37.0526378 349.742471,42.2887103 C349.300751,48.3124349 349.255858,54.3587063 349.608081,60.3883284 C349.920616,65.643157 350.792589,70.8229614 351.358278,76.0434039 C352.030228,82.2454146 352.849071,88.4349213 353.386631,94.6494361 C354.089835,102.736433 355.214962,110.764036 356.383843,118.788512 C356.849521,121.980172 357.29332,125.171832 357.787126,128.354113 C358.478215,132.629163 359.900194,136.753246 361.990724,140.545566 C364.09096,144.424949 369.700966,146.781963 373.842057,146.059854 C376.561113,145.587826 377.729995,143.712218 378.370692,141.470866 C380.217774,135.009396 382.66805,128.757369 385.015189,122.474082 C388.559338,112.977253 391.769074,103.349132 395.95392,94.1055098 C398.382318,88.7475227 401.451413,83.727145 404.517383,78.7036413 C409.105399,71.1824529 415.412359,65.8463479 423.60078,62.6015459 C428.723231,60.5696372 433.82068,58.4814602 439.049393,56.7340186 C442.852946,55.4586051 446.950282,57.5342781 449.072396,61.7919084 C450.835094,65.3274297 449.86936,69.3631131 446.437724,71.5075583 C441.677814,74.4772711 437.621107,78.2785035 433.436262,81.9390653 C432.738121,82.5628965 432.172663,83.3208989 431.773575,84.1679129 C428.501331,90.7856834 426.638622,97.881734 424.750909,104.962155 C422.997587,111.526783 421.191134,118.113293 420.484805,124.915499 C419.987874,129.676417 419.547199,134.446714 419.894113,139.242018 C420.350414,145.362753 419.581578,151.395959 418.587716,157.410409 L418.245582,159.50782 C417.521558,163.936524 416.734383,168.356855 414.893551,172.509054 C412.84332,177.10742 410.049256,181.114969 405.742521,183.903373 C405.150358,184.330958 404.65601,184.879759 404.292358,185.51327 C403.042217,187.454524 402.30776,189.617726 401.567051,191.790305 C400.84822,193.900364 401.42016,195.638428 402.726557,197.298341 C405.973797,201.424678 410.327412,201.821682 415.009189,200.877626 C416.731257,200.530639 418.415822,199.96483 420.147267,199.602213 C422.453776,199.117681 424.278981,197.701596 426.085435,196.29489 C430.360916,192.987568 434.120714,189.017531 438.868123,186.316655 C445.406358,182.602951 452.185246,179.439426 459.623583,178.023342 C465.162575,177.025221 470.810192,176.772901 476.416097,177.273098 C483.488767,177.842033 489.230038,181.227505 494.374367,185.863383 C496.299584,187.604573 498.124789,189.467677 500,191.274513 L500,201.902959 C495.543249,205.379086 490.830218,205.310313 485.979673,202.840763 C484.173219,201.924841 482.35114,201.012045 480.638447,199.936696 C476.906777,197.592186 473.481392,197.748487 469.827856,200.346204 C464.130872,204.367555 458.789804,208.870983 453.86356,213.806818 C448.659849,219.055394 443.453013,224.294593 438.055531,229.346231 C427.713743,239.036873 416.296833,247.058223 403.151605,252.500613 C403.223488,245.204497 401.782701,238.158463 399.657461,231.221839 C398.794864,228.408427 396.947782,227.448741 394.163093,228.374041 C394.032802,227.928341 393.878391,227.490053 393.700541,227.061115 C389.533406,218.064448 385.357936,209.070907 381.174132,200.080493 C379.586453,196.641878 378.04878,193.187633 376.486105,189.73964 C379.07077,187.579565 379.223913,185.619554 376.954907,183.12187 C375.873536,181.927732 374.751535,180.764855 373.620157,179.614482 C367.11005,172.987334 359.777975,167.310493 352.577165,161.483604 C337.831756,149.545359 321.776825,139.914111 303.82168,133.549548 C298.968009,131.842744 293.970572,130.651733 288.982511,129.435714 C291.885962,128.041512 294.805041,126.681696 297.68974,125.249982 C300.5767,123.880882 302.854615,121.491127 304.084209,118.541557 C308.812866,107.61614 313.713418,96.7626212 316.369967,85.0932129 C318.213924,76.9655779 319.395307,68.7504144 320.317286,60.4821088 C322.158118,43.9705056 324.905302,27.6589673 330.943481,12.063286 C331.568551,10.4627671 332.243627,8.89038233 332.903077,7.3054935 C334.21885,4.12321178 336.287832,1.61302295 339.385056,-1.00082085e-11 L345.635759,-1.00082085e-11 Z M162.80269,-1.01787387e-11 C166.434349,1.87560809 168.30956,5.09540197 169.881612,8.72782963 C175.366604,21.3850582 178.116913,34.7362618 180.304659,48.243766 C181.767324,57.3092051 182.492405,66.4965587 183.917566,75.5838799 C185.81778,87.6471659 189.680714,99.0602411 194.478129,110.213857 C195.831406,113.361753 197.331575,116.450254 198.653599,119.61378 C199.500569,121.63631 200.900726,123.052395 202.716556,124.199642 C206.210699,126.387851 210.020502,127.92585 213.761548,129.610771 C211.226888,130.167201 208.682852,130.686119 206.157568,131.286314 C197.094048,133.437011 188.08991,135.662733 179.7796,140.101672 C167.415709,146.697561 156.601993,155.353492 146.369592,164.812809 C137.052918,173.424976 128.911378,183.074979 120.919853,192.903166 C113.06897,202.562547 106.636997,212.947164 102.314635,224.638455 C99.1674063,233.150589 97.1140503,241.937813 95.4982436,250.846952 C88.5630883,247.889743 82.1811204,243.969722 76.1773199,239.46201 C66.1574427,231.925192 57.3783301,223.01918 48.6117188,214.103789 C43.5059203,208.89569 37.907217,204.195092 31.8942131,200.067989 C28.6125939,197.842267 25.5028691,197.632824 22.1618682,199.633473 C21.8055781,199.846042 21.4336613,200.036728 21.0648698,200.230541 C18.8990011,201.355906 16.826893,202.656328 14.5578878,203.60351 C9.71671813,205.629167 2.50653198,204.882049 -2.80939548e-13,198.154868 L-2.80939548e-13,194.403652 C5.66001175,186.935606 12.2076234,180.586673 21.5649261,178.035846 C26.6467478,176.647896 31.8785863,176.932363 37.0854221,177.323115 C47.964771,178.148382 57.5408483,182.524801 66.5012314,188.442345 C69.7640985,190.599294 72.5050318,193.443966 75.5428736,195.882257 C78.0684325,197.971749 81.0536576,199.432001 84.2532285,200.143013 C87.4317111,200.855744 90.5226838,201.67476 93.7730495,200.974533 C97.2609419,200.221163 99.4893175,197.961056 100.870723,194.76627 C100.936835,194.623605 100.966886,194.466878 100.958233,194.309872 C100.53631,190.449245 99.6455851,186.463578 96.5389856,184.12532 C90.728957,179.748901 87.1629308,174.122077 85.5408733,167.244847 C83.5093948,158.582664 81.7904514,149.820448 82.2748809,140.855041 C82.9624583,128.46665 80.7122051,116.528404 77.3805803,104.699569 C75.4147342,97.6910472 73.6301584,90.6325088 70.364166,84.0678805 C70.001815,83.3189003 69.5049711,82.6428799 68.8983761,82.0734839 C65.5417484,78.9474704 62.0226025,76.0277738 58.4065707,73.1987316 C57.5971047,72.5735289 56.621995,72.1421391 55.7656486,71.5575745 C52.2089985,69.125536 51.2557663,65.0117023 53.3997575,61.2854942 C54.5726525,59.298875 56.3146469,57.7100575 58.40032,56.7246406 C59.52528,56.1326403 60.8415321,56.0199237 62.0507307,56.4120392 C70.204773,59.1066628 78.2619295,62.0388635 85.7877761,66.2589817 C90.0382543,68.6378779 93.1104749,72.2202894 95.8514083,76.1215542 C102.442775,85.4995946 107.415209,95.7091547 111.259392,106.503279 C114.962933,116.878518 118.84462,127.194362 122.645048,137.553971 C123.42326,139.698416 123.657661,142.011666 124.985936,143.965425 C125.647129,144.971374 126.675908,145.678318 127.851883,145.934813 C132.455526,147.044548 138.384318,144.287404 140.559563,139.870347 C142.920883,134.999445 144.433406,129.761051 145.031941,124.38095 C145.766399,118.24146 146.822768,112.139482 147.607231,106.003117 C148.194797,101.414129 148.594842,96.8001334 149.038642,92.1923895 C149.782476,84.5315725 150.66695,76.8874275 151.692065,69.2599546 C152.752894,61.4686661 153.059558,53.5931676 152.607793,45.7429552 C152.320261,40.7413337 152.063982,35.7678462 151.567051,30.7943588 C151.204511,27.1713092 150.316911,23.6232839 149.882487,20.0158643 C149.257416,14.5891049 149.498069,9.21236172 152.070233,4.18885806 C153.082847,2.22884761 154.676776,0.978442219 156.551987,-1.01787387e-11 L162.80269,-1.01787387e-11 Z M197.665987,213.806818 C197.613303,214.591001 197.723902,215.325422 197.983935,215.98945 C198.637143,217.65577 200.221186,218.875872 202.522784,219.33361 C204.968629,219.818562 207.417399,220.27729 209.869236,220.707934 C224.97331,223.37008 240.186326,224.956375 255.564964,225.035854 L257.213311,225.038584 C260.129265,225.038584 263.048343,225.126113 265.964296,225.019828 C274.974685,224.707227 283.90694,223.681894 292.689178,221.581213 C295.792652,220.837222 297.499094,218.239505 296.864647,215.2948 C296.387096,213.06492 294.518884,211.540626 292.233714,211.39504 C291.676314,211.357601 291.094223,211.401826 290.501431,211.537332 C284.419732,212.943752 278.239666,213.884283 272.014977,214.350744 C252.909702,215.732442 233.954445,214.181939 215.092948,211.143454 C211.195635,210.515126 207.335825,209.642968 203.432261,209.064655 C200.360041,208.608257 197.872261,210.777711 197.665987,213.806818 Z M179.757723,165.978713 C173.672663,166.00382 167.568851,172.15894 167.621982,178.217154 C167.658071,182.428425 170.836965,185.55135 174.930885,185.519226 L175.172742,185.513678 L175.416609,185.500766 C181.19851,185.106888 186.574115,179.895824 187.136678,174.134581 L187.14,174.09 L187.140857,174.089502 L187.136678,174.134581 C187.580478,169.576853 184.308235,165.95693 179.757723,165.978713 Z M321.099992,165.971967 C316.866555,165.982974 313.736117,169.088133 313.757067,173.365581 L313.760689,173.622661 C313.915209,179.282126 319.140666,184.788538 325.030316,185.441372 C329.765224,185.963416 333.393757,182.631085 333.246865,177.892049 C333.065595,172.043278 327.455589,166.297665 321.601805,165.985064 C321.432918,165.975863 321.265607,165.971536 321.099992,165.971967 Z" id="Combined-Shape"></path>
            </g>
        </g>
    </g>
</svg>