<?xml version="1.0" encoding="UTF-8"?>
<svg width="401px" height="402px" viewBox="0 0 401 402" version="1.1" xmlns="http://www.w3.org/2000/svg" xmlns:xlink="http://www.w3.org/1999/xlink">
    <!-- Generator: Sketch 64 (93537) - https://sketch.com -->
    <title>green circle icon</title>
    <desc>Created with Sketch.</desc>
    <g id="Page-1" stroke="none" stroke-width="1" fill="none" fill-rule="evenodd">
        <g id="axol-style-guide" transform="translate(-2367.000000, -1511.000000)">
            <g id="green-circle-icon" transform="translate(2294.000000, 1438.000000)">
                <g id="FINAL-Copy-2">
                    <ellipse id="Oval-Copy" fill="#A8D1A9" cx="274.08287" cy="275.119223" rx="199.91713" ry="199.880777"></ellipse>
                    <path d="M423.464991,286.991855 C423.473685,176.595731 333.978853,87.1090373 223.57269,87.1177308 C113.166527,87.1264243 23.657601,176.627213 23.6489075,287.023337 C139.988774,287.014177 267.223972,285.901382 423.464991,286.991855 Z" id="Oval" fill-opacity="0.25" fill="#24473D" transform="translate(223.556949, 187.070534) scale(-1, 1) rotate(30.000000) translate(-223.556949, -187.070534) "></path>
                </g>
                <g id="Asset-1" transform="translate(101.000000, 167.000000)" fill-rule="nonzero">
                    <path d="M174.00086,91.4320503 C181.937845,91.7267306 189.876969,92.1175024 197.694216,93.6272053 C205.571333,95.1497204 212.894656,98.2032921 219.972087,101.923098 C229.07439,106.702044 237.094766,112.992829 244.959053,119.512097 C248.444313,122.401246 251.814111,125.409975 254.835383,128.788122 C255.754808,129.815233 256.838873,130.026634 258.100409,129.618779 C259.169508,131.96768 260.225777,134.3358 261.307704,136.682566 C264.158633,142.828146 267.015264,148.97159 269.877596,155.1129 C270.00072,155.405818 270.107788,155.705212 270.198326,156.009753 C268.842709,156.998427 268.556191,157.790647 269.037285,159.404983 C270.185497,163.261452 271.122027,167.158492 271.175482,171.209279 C271.209693,173.344644 270.991597,175.480009 270.138456,177.470169 C269.631704,178.659567 268.998798,179.761415 267.799269,180.412702 C267.649066,180.504672 267.51832,180.625088 267.414394,180.767172 C262.496542,187.023791 256.255146,191.695969 249.400087,195.588739 C239.40188,201.266674 228.57619,204.405661 217.211675,205.80646 C202.605654,207.606573 187.937625,207.694123 173.256767,207.365276 C162.463151,207.121845 151.68664,206.551702 140.920819,205.785106 C122.907896,204.510392 105.259818,200.081809 88.7830329,192.701726 C83.9592613,190.553549 79.4562192,187.813876 75.6951314,184.023604 C73.2960747,181.606371 71.4914368,178.849615 70.9739932,175.388188 C70.6575401,173.252824 71.1215288,171.21355 71.5192333,169.157194 C72.9561015,161.736801 75.1541676,154.574788 78.6030788,147.818493 C81.0555903,143.009652 84.3013728,138.75814 87.6476505,134.545066 C92.7258675,128.153919 98.0521153,122.006204 104.049757,116.454255 C110.750865,110.248885 117.826158,104.564544 125.932061,100.24043 C131.010278,97.5306522 136.520411,96.183237 142.039096,94.8294157 C152.537642,92.2541657 163.190137,91.0284663 174.00086,91.4320503 Z M237.002823,-1.65785923e-11 C240.109623,1.49475536 240.971316,4.32411373 241.493036,7.39263296 C242.134495,11.0483775 241.493036,14.6123014 240.81309,18.1762252 C240.133143,21.7401491 240.062583,25.310479 239.812414,28.8872151 C239.510213,33.0019924 239.479499,37.1321714 239.720471,41.2509773 C239.934291,44.8405256 240.530848,48.3788251 240.917861,51.9448843 C241.377573,56.1814481 241.937781,60.4094704 242.305551,64.6545756 C242.786645,70.1787644 243.556396,75.6623812 244.356081,81.1438626 C244.674673,83.3240701 244.978297,85.5042776 245.316132,87.6780789 C245.788937,90.5983449 246.761778,93.4154863 248.192006,96.0060017 C249.628874,98.6559894 253.466937,100.266054 256.300048,99.7727852 C258.160279,99.4503451 258.959964,98.1691262 259.398295,96.6380697 C260.661969,92.2242706 262.338315,87.953541 263.944101,83.6614577 C266.368816,77.1742195 268.564744,70.5972959 271.427789,64.2830221 C273.089168,60.6230069 275.188877,57.193611 277.286448,53.7620797 C280.42532,48.624392 284.740201,44.9793243 290.342276,42.7628156 C293.846781,41.3748285 297.334179,39.9484048 300.911382,38.7547359 C303.513567,37.883507 306.316743,39.3013893 307.768579,42.2097561 C308.974522,44.6248537 308.313819,47.3816097 305.966079,48.8464699 C302.709606,50.8750665 299.934226,53.4716701 297.071181,55.9721823 C296.593551,56.3983184 296.206695,56.9161062 295.93366,57.4946974 C293.694969,62.0152647 292.420603,66.8625428 291.129133,71.6991441 L290.649253,73.4939616 C289.613417,77.3858199 288.629296,81.3021644 288.210494,85.3291777 C287.870521,88.5813383 287.569035,91.839905 287.806375,95.1155546 C288.118552,99.2965989 287.592555,103.417853 286.912609,107.526295 C286.335296,111.026158 285.843511,114.555916 284.38526,117.840107 C282.982603,120.981228 281.071056,123.718766 278.124621,125.623512 C277.719495,125.915593 277.381288,126.290476 277.132498,126.723224 C276.277219,128.049286 275.774743,129.526958 275.26799,131.011037 C274.776205,132.452408 275.167495,133.639671 276.061261,134.77355 C278.282847,137.592231 281.261355,137.863423 284.464374,137.218542 C285.64252,136.981517 286.795008,136.595016 287.979569,136.347314 C289.557558,136.016332 290.806265,135.049012 292.042143,134.088098 C294.967196,131.828882 297.539446,129.116968 300.787367,127.272013 C305.260474,124.7352 309.898223,122.574211 314.987131,121.60689 C318.77661,120.925079 322.640404,120.75272 326.475661,121.094403 C331.3144,121.483039 335.242267,123.795639 338.761739,126.962385 C340.078868,128.151783 341.327575,129.424461 342.610493,130.658702 L342.610493,137.918942 C339.561424,140.293468 336.337024,140.24649 333.018543,138.559552 C331.782665,137.93389 330.536096,137.310363 329.364365,136.575798 C326.811358,134.974274 324.467894,135.081042 321.968343,136.85553 C318.070774,139.602496 314.416704,142.678766 311.046434,146.050411 C307.486337,149.635689 303.924101,153.21456 300.231436,156.66531 C293.156143,163.284941 285.345311,168.764287 276.352056,172.481957 C276.401234,167.498015 275.415526,162.684903 273.961552,157.946529 C273.37141,156.0247 272.107735,155.369143 270.202602,156.001211 C270.113464,155.696756 270.007824,155.397363 269.886149,155.104358 C267.03522,148.958778 264.17859,142.815334 261.316257,136.674024 C260.230053,134.325123 259.17806,131.965545 258.108962,129.610238 C259.877251,128.134701 259.982022,126.795827 258.429692,125.08967 C257.689876,124.273961 256.922263,123.479605 256.148236,122.693791 C251.694372,118.166818 246.678163,114.288995 241.751758,110.308675 C231.663746,102.153717 220.67983,95.574658 208.39589,91.2270553 C205.075271,90.0611461 201.656295,89.2475721 198.243733,88.4169152 C200.230118,87.4645425 202.227193,86.5356588 204.200749,85.5576617 C206.175851,84.6224363 207.734277,82.9900056 208.575499,80.9751688 C211.810591,73.5120688 215.163283,66.0980822 216.98075,58.1267654 C218.242286,52.5748169 219.050524,46.9630782 219.681292,41.3150383 C220.94069,30.0360414 222.820165,18.8937078 226.951161,8.24037279 C227.3788,7.14706601 227.840651,6.07297751 228.29181,4.99034755 C229.191991,2.81654618 230.607477,1.10184824 232.72643,-1.65785923e-11 L237.002823,-1.65785923e-11 Z M111.91832,-1.66780683e-11 C114.402905,1.28121888 115.685823,3.48064463 116.761336,5.96193854 C120.513871,14.6080306 122.395484,23.7281737 123.892222,32.9550851 C124.892898,39.147643 125.388959,45.4234802 126.363977,51.6309857 C127.664,59.8713584 130.306811,67.6675753 133.588943,75.286557 C134.514782,77.4368693 135.541117,79.5466098 136.445574,81.7075989 C137.025025,83.08918 137.982937,84.0565002 139.22523,84.8401791 C141.615733,86.3349345 144.222195,87.385534 146.781616,88.5364956 C145.047539,88.9165905 143.307047,89.2710611 141.579384,89.6810511 C135.378614,91.1501821 129.218469,92.6705619 123.533005,95.7027799 C115.074299,100.2084 107.676138,106.121225 100.675683,112.582839 C94.3017184,118.465769 88.7317162,125.05764 83.2643474,131.771227 C77.8931975,138.369504 73.4927888,145.463186 70.5356629,153.44945 C68.3824989,159.264049 66.9777037,165.266559 65.872256,171.352349 C61.1275977,169.332294 56.7614002,166.654546 52.6539245,163.57535 C45.7988661,158.426986 39.7926718,152.343331 33.7950302,146.253271 C30.3019189,142.695644 26.4715887,139.484687 22.3578165,136.665483 C20.11271,135.145103 17.9852044,135.002034 15.6994722,136.368667 C15.4557177,136.513872 15.2012723,136.644129 14.9489651,136.776522 C13.4671949,137.545253 12.0495705,138.433565 10.4972398,139.080581 C7.18517319,140.464297 2.25235357,139.953945 0.537519873,135.35864 L0.537519873,132.796202 C4.40979397,127.694815 8.8893159,123.357889 15.2910766,121.615432 C18.7677843,120.66733 22.3471255,120.861648 25.9093611,121.128569 C33.3524235,121.692305 39.903858,124.681816 46.0340677,128.724061 C48.266345,130.197463 50.1415435,132.140645 52.2198706,133.806229 C53.9477215,135.233552 55.9900512,136.231043 58.1790246,136.716732 C60.3535705,137.203595 62.468247,137.76306 64.6919715,137.284739 C67.0781989,136.770116 68.6027331,135.226247 69.547816,133.043904 C69.5930462,132.946451 69.6136055,132.839391 69.6076856,132.732141 C69.319029,130.094965 68.709643,127.372375 66.5842755,125.775122 C62.609368,122.785612 60.1696856,118.941955 59.0599616,114.244153 C57.6701338,108.327057 56.4941256,102.341629 56.8255461,96.2174028 C57.2959494,87.7549521 55.7564478,79.5999939 53.4771302,71.5197735 C52.1322045,66.7322856 50.9112942,61.9106318 48.6768788,57.4263657 C48.4289778,56.9147409 48.0890641,56.4529547 47.6740645,56.064003 C45.3776414,53.9286382 42.970032,51.9342075 40.4961385,50.0017023 C39.9423455,49.5746293 39.2752282,49.279949 38.6893623,48.8806358 C36.2560945,47.219322 35.6039446,44.4091819 37.0707475,41.863827 C37.8731788,40.5067769 39.0649572,39.4214633 40.4918621,38.7483298 C41.2614989,38.3439373 42.1620074,38.266941 42.9892757,38.5347933 C48.5678307,40.3754778 54.0801016,42.3784499 59.2288791,45.2611924 C62.1368265,46.8862051 64.2386738,49.3333331 66.1138723,51.9982684 C70.623329,58.4043628 74.0251998,65.3784643 76.6551816,72.751879 C79.1889446,79.8391547 81.8445849,86.8858586 84.444632,93.9624576 C84.9770429,95.4273178 85.1374077,97.0074878 86.0461412,98.3420908 C86.4984936,99.0292497 87.2023285,99.51216 88.0068675,99.6873706 C91.1564312,100.445425 95.2125902,98.5620334 96.700775,95.5447629 C98.3162623,92.2174734 99.3510494,88.639151 99.7605344,84.9640303 C100.263011,80.7701738 100.985721,76.6019417 101.522408,72.4102206 C101.924389,69.275505 102.198079,66.1237066 102.501702,62.9761789 C103.010593,57.7431115 103.615703,52.5214328 104.317031,47.3111426 C105.042793,41.9889508 105.252596,36.6092356 104.943523,31.2467932 C104.746809,27.8302095 104.571477,24.4328441 104.231504,21.0354787 C103.983473,18.5605909 103.376225,16.1369518 103.079016,13.6727409 C102.651376,9.96574755 102.816017,6.29292008 104.575753,2.86138884 C105.268529,1.52251511 106.359009,0.668369184 107.641927,-1.66780683e-11 L111.91832,-1.66780683e-11 Z M135.769904,146.050411 C135.735103,146.567611 135.80444,147.053124 135.969388,147.494262 C136.404513,148.656521 137.496313,149.508745 139.092661,149.825736 C140.760648,150.15595 142.430625,150.468364 144.102685,150.76172 C154.344801,152.564916 164.660167,153.646278 175.0865,153.719122 L176.508964,153.722777 C178.503902,153.722777 180.500977,153.782567 182.495915,153.709965 C188.660336,153.496428 194.771302,152.796029 200.779634,151.361064 C202.902863,150.852847 204.070319,149.078359 203.636265,147.066845 C203.295533,145.478271 201.919994,144.413926 200.265278,144.395374 C199.944925,144.390068 199.616386,144.424021 199.282896,144.500136 C195.122127,145.460855 190.894059,146.103327 186.635463,146.421965 C173.564667,147.365796 160.596505,146.306655 147.692488,144.23108 C145.026157,143.801872 142.385484,143.206105 139.714877,142.811063 C137.613029,142.4993 135.911025,143.981243 135.769904,146.050411 Z M123.518037,113.379262 C119.354968,113.396413 115.17907,117.600946 115.21542,121.739283 C115.239826,124.582964 117.365296,126.700169 120.119583,126.727199 L120.332667,126.725129 L120.548082,126.714683 C124.503746,126.445627 128.181444,122.885974 128.566319,118.950497 C128.869943,115.837135 126.631251,113.364382 123.518037,113.379262 Z M220.337423,113.375565 L220.116641,113.375747 C217.271609,113.43097 215.178977,115.536829 215.193145,118.425197 L215.197539,118.660717 C215.338289,122.505537 218.89713,126.230468 222.905693,126.674111 C223.126559,126.698425 223.343906,126.710489 223.557156,126.710836 L223.769018,126.707345 C226.575068,126.608903 228.618371,124.460126 228.527012,121.517205 C228.402996,117.521937 224.564933,113.597137 220.560091,113.3836 C220.485411,113.379538 220.411181,113.376867 220.337423,113.375565 Z" id="Combined-Shape" fill="#FFFFFF"></path>
                    <path d="M173.891574,213.160575 C175.128911,212.839259 176.364297,213.038511 177.599682,213.160575 L173.891574,213.160575 Z" id="Path" fill="#4A90E1"></path>
                </g>
            </g>
        </g>
    </g>
</svg>