<?xml version="1.0" encoding="UTF-8"?>
<svg width="500px" height="312px" viewBox="0 0 500 312" version="1.1" xmlns="http://www.w3.org/2000/svg" xmlns:xlink="http://www.w3.org/1999/xlink">
    <title>multicolored icon</title>
    <g id="Page-1" stroke="none" stroke-width="1" fill="none" fill-rule="evenodd">
        <g id="axol-style-guide" transform="translate(-794.000000, -1569.000000)" fill-rule="nonzero">
            <g id="multicolored-icon" transform="translate(794.000000, 1569.000000)">
                <g id="multi">
                    <path d="M345.615625,0.0437381711 C350.15625,2.23064672 351.415625,6.3701522 352.178125,10.859563 C353.115625,16.2081165 352.178125,21.4223314 351.184375,26.6365462 C350.190625,31.850761 350.0875,37.0743483 349.721875,42.307308 C349.280729,48.3274462 349.234797,54.3700204 349.584375,60.3961659 C349.896875,65.6478706 350.771875,70.8245956 351.3375,76.0419346 C352.009375,82.2402582 352.828125,88.4260853 353.365625,94.6369056 C354.06875,102.719095 355.1875,110.741925 356.3625,118.761631 C356.83125,121.948269 357.275,125.138032 357.765625,128.321546 C358.428125,132.629755 359.715625,136.822372 362.025,140.449516 C364.18125,143.842348 367.446875,146.210458 371.80625,146.207333 C375.509375,146.207333 377.378125,144.842078 378.4,141.271168 C380.31875,134.563607 382.903125,128.096606 385.303125,121.567122 C388.428125,113.081917 391.34375,104.509236 394.990625,96.2302247 C398.715625,87.735647 403.303125,79.7096926 409.153125,72.4366596 C412.984375,67.669199 418.215625,65.0386604 423.6,62.6486818 C428.6375,60.4149109 433.803125,58.4904313 439.028125,56.7440287 C442.834375,55.4693734 446.928125,57.5438124 449.053125,61.7989116 C450.815625,65.332331 449.85,69.3656152 446.41875,71.5087856 C441.659375,74.4767329 437.603125,78.2757054 433.41875,81.934091 C432.720772,82.5564052 432.155357,83.3129219 431.75625,84.1584895 C428.484375,90.7754499 426.621875,97.8672819 424.734375,104.943493 C422.98125,111.504219 421.175,118.083689 420.46875,124.881851 C419.975,129.643063 419.53125,134.4074 419.878125,139.199854 C420.334375,145.320073 419.565625,151.349693 418.571875,157.357443 C417.728125,162.481057 417.009375,167.645286 414.878125,172.450236 C412.828125,177.045868 410.034375,181.047911 405.73125,183.837781 C405.137506,184.2642 404.642015,184.81282 404.278125,185.446721 C403.028125,187.386822 402.29375,189.548737 401.553125,191.7169 C400.834375,193.825705 401.41875,195.553363 402.709375,197.224786 C405.6625,201.048752 409.703125,201.648589 414.078125,200.995641 C416.265625,200.664481 418.421875,199.977166 420.578125,199.396074 C423.278125,198.67127 425.31875,196.846763 427.41875,195.147223 C431.215625,192.073054 434.696875,188.586497 438.98125,186.171525 C445.48125,182.500643 452.2125,179.34837 459.60625,177.961246 C465.144803,176.965356 470.791564,176.713196 476.396875,177.211448 C483.46875,177.780045 489.228125,181.16038 494.35625,185.796627 C496.28125,187.536781 498.10625,189.398777 499.98125,191.204539 L499.98125,201.826666 C495.521875,205.303851 490.809375,205.225747 485.953125,202.763913 C484.306011,201.988755 482.706328,201.116626 481.1625,200.152119 C477.046875,197.418483 473.28125,197.652795 469.26875,200.623867 C463.771875,204.685268 458.5125,208.999726 453.715625,213.860912 C447.684375,219.974883 441.603125,226.045116 435.228125,231.796686 C424.8125,241.209765 413.15625,248.592144 400.046875,253.665771 C401.546875,245.046228 401.325,236.614133 398.796875,228.08519 C393.85,211.383457 384.9,197.031088 373.859375,183.85965 C368.88125,177.923756 363.234375,172.572078 357.69375,167.126676 C343.05625,152.699328 325.890625,142.233408 306.875,134.669829 C301.078125,132.357954 295.040625,130.830242 288.975,129.393131 C291.878125,127.999758 294.796875,126.64075 297.68125,125.209887 C300.567792,123.842006 302.846257,121.455104 304.078125,118.508575 C308.80625,107.574032 313.70625,96.7425861 316.3625,85.0801152 C318.20625,76.957312 319.3875,68.7470325 320.309375,60.4867664 C322.15,43.9818552 324.896875,27.6831381 330.934375,12.0936043 C331.559375,10.4940369 332.234375,8.9225869 332.89375,7.33864028 C334.2125,4.16762287 336.28125,1.65580219 339.365625,0.0437381711 L345.615625,0.0437381711 Z M162.8125,0.0343657058 C166.44375,1.90885875 168.31875,5.12673848 169.890625,8.75700668 C175.375,21.4067106 178.125,34.7499769 180.3125,48.249451 C181.775,57.3095007 182.5,66.4913925 183.925,75.5733113 C185.825,87.6294257 189.6875,99.0357159 194.484375,110.182701 C195.8375,113.328725 197.3375,116.431011 198.659375,119.577036 C199.50625,121.598364 200.90625,123.013606 202.721875,124.157047 C206.215625,126.343955 210.025,127.884164 213.765625,129.568083 C211.23125,130.124183 208.6875,130.642793 206.1625,131.242631 C197.1,133.392049 188.096875,135.616448 179.7875,140.052748 C167.38125,146.672833 156.546875,155.376729 146.2625,164.852291 C136.54375,173.802995 128.1375,183.909637 119.8625,194.166238 C112.3625,203.432482 106.425,213.511006 102.278125,224.682985 C99.153125,233.143197 97.11875,241.865838 95.515625,250.73219 C88.58125,247.776739 82.2,243.859049 76.196875,239.354017 C66.171875,231.812307 57.39375,222.920961 48.628125,214.004623 C43.5229009,208.79962 37.9248275,204.101816 31.9125,199.977166 C28.6375,197.740271 25.528125,197.54345 22.1875,199.542909 C21.83125,199.755351 21.459375,199.945925 21.090625,200.139623 C18.925,201.264318 16.853125,202.563967 14.584375,203.510586 C9.74375,205.535038 2.534375,204.788365 0.028125,198.058935 L0.028125,194.322446 C5.69375,186.868212 12.23125,180.510556 21.590625,177.96437 C26.675,176.580369 31.903125,176.858419 37.109375,177.252062 C47.9875,178.076839 57.565625,182.450656 66.525,188.364682 C69.784375,190.520349 72.525,193.36333 75.5625,195.800171 C78.0886981,197.887635 81.0731311,199.347866 84.271875,200.061519 C87.45,200.773826 90.54375,201.592355 93.79375,200.88942 C97.28125,200.136498 99.50625,197.877734 100.8875,194.684848 C100.953002,194.542075 100.983021,194.385591 100.975,194.228721 C100.553125,190.37039 99.6625,186.383968 96.55625,184.050224 C90.74375,179.676407 87.18125,174.052928 85.559375,167.179786 C83.528125,158.522753 81.809375,149.762622 82.29375,140.802545 C82.98125,128.424643 80.73125,116.49037 77.4,104.671692 C75.434375,97.667336 73.65,90.6129938 70.38125,84.0522682 C70.0211668,83.3032076 69.5252866,82.6273827 68.91875,82.0590572 C65.5625,78.9349022 62.04375,76.0169413 58.428125,73.189581 C57.61875,72.56475 56.64375,72.1336166 55.7875,71.5493996 C52.23125,69.1156828 51.278125,65.0074188 53.421875,61.2803018 C54.5955752,59.2963893 56.3371971,57.7097654 58.421875,56.7252837 C59.5477805,56.1334636 60.8649087,56.0208227 62.075,56.4128682 C70.225,59.1058899 78.28125,62.0363474 85.80625,66.2539567 C90.05625,68.6314387 93.13125,72.2117204 95.86875,76.110666 C102.459375,85.4831312 107.43125,95.6866217 111.275,106.477453 C114.978125,116.8434 118.859375,127.153112 122.659375,137.506562 C123.44375,139.640359 123.671875,141.964731 125.015625,143.914204 C125.674546,144.920316 126.702618,145.627205 127.878125,145.882421 C132.48125,146.991496 138.4125,144.235992 140.584375,139.82156 C142.941105,134.952772 144.449222,129.717524 145.04375,124.341372 C145.778125,118.205531 146.834375,112.107181 147.61875,105.974464 C148.20625,101.388205 148.60625,96.7769518 149.05,92.1719472 C149.79375,84.5156845 150.678125,76.8750426 151.703125,69.2500214 C152.763943,61.464422 153.070573,53.5946315 152.61875,45.7501269 C152.33125,40.7514788 152.075,35.7778239 151.578125,30.8104174 C151.215625,27.1895216 150.3125,23.6404815 149.89375,20.0383307 C149.26875,14.6116733 149.509375,9.24125072 152.08125,4.22073351 C153.08125,2.27750905 154.68125,1.02784702 156.559375,0.0499864812 L162.8125,0.0343657058 Z" id="Combined-Shape" fill="#E28489"></path>
                    <path d="M252.1875,311.137728 C254.16875,310.578504 256.146875,310.925286 258.125,311.137728 L252.1875,311.137728 Z" id="Path" fill="#4A90E1"></path>
                    <path d="M253.578125,133.804438 C265.175,134.238695 276.784375,134.788547 288.203125,137.028566 C301.759375,139.687222 314.078125,145.463785 326.015625,152.277567 C342.8625,161.918709 356.328125,175.415059 369,189.748683 C376.3375,198.052687 382.271875,207.456394 386.93125,217.553663 C389.394265,222.994644 391.328167,228.659822 392.70625,234.470963 C394.503125,241.828348 393.44375,249.154492 391.734375,256.396283 C391.534375,257.255426 391.2375,258.098948 391.109375,258.967463 C390.240625,264.822129 386.45,268.764813 382.359375,272.548165 C369.703125,284.245001 354.859375,291.946044 338.403125,296.750994 C328.68125,299.590851 318.715625,301.124811 308.665625,302.040189 C293.55,303.433562 278.403125,303.736605 259.16875,303.586645 C244.503125,303.374203 225.790625,302.380722 207.078125,301.262274 C183.1375,299.831411 160.178125,294.207932 137.840625,285.800831 C128.378125,282.239294 119.3375,277.778 111.675,270.986087 C107.80625,267.549517 104.68125,263.603709 103.325,258.464474 C102.346875,254.749853 103.05625,251.13833 103.765625,247.508062 C105.88125,236.654747 109.078125,226.170083 114.128125,216.28838 C117.596875,209.490219 122.125,203.435606 126.85625,197.474718 C134.440625,187.921052 142.359375,178.695422 151.325,170.397666 C161.125,161.337616 171.465625,153.005495 183.3125,146.679081 C190.734375,142.717652 198.790625,140.743186 206.859375,138.76872 C222.20625,135.019734 237.775,133.213972 253.578125,133.804438 Z M203.490625,208.974733 C201.209449,208.638068 199.260252,209.702142 198.300219,211.499896 L198.293969,211.510581 C197.953313,212.148884 197.737202,212.879778 197.675,213.673462 C197.453125,216.485202 199.303125,218.609627 202.61875,219.268824 C207.692078,220.268779 212.777809,221.157129 217.877133,221.916894 C230.875252,223.862088 243.96249,224.961607 257.159375,224.939166 L257.159375,224.939166 C260.128125,224.939166 263.096875,225.029766 266.0625,224.920421 C275.01875,224.58926 283.896875,223.583282 292.625,221.48385 C294.684688,220.99039 296.146273,219.686477 296.721402,218.021688 L296.727652,218.00482 C297.037336,217.109814 297.09,216.110616 296.840625,215.076208 C296.175,212.323827 293.471875,210.739881 290.396875,211.439691 C284.366669,212.840563 278.238551,213.780525 272.065625,214.251431 C252.909375,215.635432 233.90625,214.092099 214.996875,211.024179 C211.153125,210.399348 207.340625,209.549578 203.490625,208.974733 Z M179.846875,165.914445 C173.76875,165.892635 167.659375,171.962868 167.631148,178.064343 L167.632834,177.935052 C167.631925,177.98127 167.631362,178.027492 167.631148,178.073715 C167.609375,182.494395 171.10625,185.762261 175.5,185.424852 C181.24375,184.981222 186.509375,179.882601 187.134375,174.156025 C187.17535,173.780654 187.190801,173.411274 187.182122,173.049439 C187.090068,169.027119 184.009738,165.931708 179.846875,165.914445 Z M322.690625,166.083208 C319.255273,165.418739 316.250842,166.859568 314.741307,169.395397 L314.735776,169.403803 C313.888738,170.826026 313.513623,172.592434 313.8,174.524675 C314.60625,180.035685 319.60625,184.834387 325.14375,185.390486 C329.653125,185.843489 333.190625,182.684968 333.23125,178.161192 L333.23125,178.170564 C333.23347,177.909749 333.224968,177.649115 333.206135,177.38911 C332.831501,172.153445 328.257957,167.158255 322.690625,166.083208 Z" id="Combined-Shape" fill="#E2BFC3"></path>
                </g>
            </g>
        </g>
    </g>
</svg>