<?xml version="1.0" encoding="UTF-8"?>
<svg width="401px" height="402px" viewBox="0 0 401 402" version="1.1" xmlns="http://www.w3.org/2000/svg" xmlns:xlink="http://www.w3.org/1999/xlink">
    <!-- Generator: Sketch 64 (93537) - https://sketch.com -->
    <title>pink circle icon</title>
    <desc>Created with Sketch.</desc>
    <g id="Page-1" stroke="none" stroke-width="1" fill="none" fill-rule="evenodd">
        <g id="axol-style-guide" transform="translate(-1899.000000, -1511.000000)">
            <g id="pink-circle-icon" transform="translate(1825.966601, 1438.000000)">
                <circle id="Oval-Copy" fill="#E2BFC3" cx="274.533399" cy="275.5" r="199.5"></circle>
                <path d="M423.662313,286.830984 C423.671003,176.480353 334.213051,87.0305356 223.852386,87.0392256 C113.49172,87.0479155 24.019679,176.511822 24.010989,286.862453 C140.302913,286.853296 267.485679,285.740961 423.662313,286.830984 Z" id="Oval" fill-opacity="0.25" fill="#E28489" transform="translate(223.836651, 186.950840) scale(-1, 1) rotate(30.000000) translate(-223.836651, -186.950840) "></path>
                <path d="M278.459734,259.205072 C286.395027,259.499021 294.332457,259.888823 302.148037,261.394778 C310.023473,262.913513 317.345234,265.959505 324.421155,269.670076 C333.521516,274.437159 341.540181,280.712327 349.40279,287.215411 C352.887307,290.097388 356.256386,293.098648 359.277014,296.468409 C360.196242,297.492969 361.280077,297.703846 362.541343,297.297004 C363.610214,299.640074 364.666258,302.002314 365.747954,304.343255 C368.598275,310.473578 371.454296,316.601772 374.316018,322.727835 C374.439115,323.020027 374.546161,323.318677 374.636679,323.622462 C373.281352,324.608682 372.994894,325.398935 373.475886,327.009264 C374.623853,330.856159 375.560183,334.743525 375.613627,338.784256 C375.64783,340.91432 375.429781,343.044384 374.576822,345.029604 C374.070178,346.216049 373.437407,347.315162 372.238134,347.964831 C372.087963,348.056573 371.957245,348.176691 371.853341,348.318422 C366.936538,354.559509 360.696473,359.220089 353.842877,363.103195 C343.846803,368.767035 333.023423,371.898228 321.661332,373.29555 C307.058427,375.091194 292.393527,375.178527 277.715801,374.850497 C266.924487,374.60767 256.150274,374.038943 245.386751,373.27425 C227.37767,372.0027 209.733357,367.585111 193.260087,360.223349 C188.437344,358.080504 183.935263,355.347633 180.174977,351.566769 C177.776432,349.155537 175.972179,346.405625 175.454846,342.952791 C175.138461,340.822727 175.60235,338.788517 175.99997,336.737265 C177.436532,329.335293 179.634129,322.191059 183.082304,315.451537 C185.534293,310.654634 188.779383,306.413677 192.124947,302.211061 C197.20208,295.83578 202.527192,289.703326 208.523554,284.16516 C215.223233,277.975195 222.297016,272.304965 230.40119,267.991586 C235.478324,265.288535 240.987281,263.944464 246.504789,262.594004 C257.001095,260.025147 267.651318,258.80249 278.459734,259.205072 Z M341.448258,168 C344.554395,169.491045 345.415904,172.313379 345.937513,175.374281 C346.578835,179.02095 345.937513,182.576027 345.257712,186.131103 C344.57791,189.68618 344.507365,193.247646 344.257249,196.815503 C343.955113,200.920066 343.924406,205.039992 344.165326,209.148573 C344.3791,212.72921 344.97553,216.258726 345.362461,219.815932 C345.822075,224.041979 346.382163,228.259505 346.749854,232.494072 C347.230846,238.004547 348.000433,243.474551 348.799948,248.942425 C349.118471,251.11722 349.42203,253.292015 349.759793,255.46042 C350.232498,258.373437 351.205131,261.183584 352.635054,263.767669 C354.071616,266.411078 357.90886,268.017146 360.741366,267.525102 C362.6012,267.203462 363.400715,265.925424 363.838952,264.398168 C365.102357,259.995326 366.778345,255.735198 368.383788,251.45377 C370.807986,244.982636 373.003445,238.42204 375.86588,232.123441 C377.526904,228.472512 379.626166,225.051629 381.723289,221.628617 C384.861492,216.503683 389.175452,212.867664 394.776332,210.656658 C398.280089,209.272116 401.766744,207.849234 405.343184,206.658528 C407.944814,205.789462 410.747392,207.203824 412.198917,210.104971 C413.404603,212.514074 412.744041,215.263986 410.396802,216.72521 C407.141023,218.74877 404.366236,221.338928 401.503802,223.833233 C401.026274,224.258311 400.6395,224.774813 400.366524,225.351968 C398.128309,229.861313 396.854216,234.696558 395.563021,239.521153 L395.083244,241.311515 C394.047629,245.193711 393.063717,249.100334 392.645005,253.11735 C392.305104,256.361437 392.003683,259.611915 392.240972,262.879432 C392.553082,267.050097 392.027198,271.161121 391.347397,275.259363 C390.770207,278.750538 390.278526,282.271533 388.820587,285.547572 C387.41823,288.680895 385.50709,291.411637 382.561283,293.311654 C382.156244,293.603011 381.818109,293.976963 381.569372,294.408637 C380.714275,295.731407 380.211906,297.205411 379.705262,298.685805 C379.213582,300.123598 379.604788,301.307914 380.498364,302.438978 C382.719476,305.250662 385.697349,305.52118 388.899684,304.877901 C390.077579,304.641464 391.229821,304.255922 392.414129,304.008835 C393.991782,303.678675 395.240222,302.713756 396.475836,301.755227 C399.400265,299.50162 401.971967,296.796439 405.219195,294.956063 C409.691348,292.425548 414.328107,290.269923 419.415929,289.305004 C423.2046,288.624885 427.06757,288.452955 430.902009,288.793789 C435.739716,289.18146 439.666745,291.488319 443.185466,294.647204 C444.502314,295.83365 445.750755,297.103168 447.033399,298.334345 L447.033399,305.576562 C443.984981,307.945193 440.761268,307.898331 437.443495,306.215581 C436.207881,305.591472 434.961578,304.969493 433.790096,304.236751 C431.237634,302.639204 428.894671,302.745707 426.395652,304.51579 C422.498915,307.255936 418.845625,310.324569 415.476074,313.687845 C411.916736,317.264222 408.35526,320.834209 404.663382,324.276392 C397.589599,330.87959 389.780433,336.345333 380.789096,340.053774 C380.838264,335.082205 379.852766,330.281042 378.399102,325.55443 C377.809086,323.637373 376.545681,322.983443 374.640955,323.613942 C374.551836,323.310242 374.446218,323.011593 374.324569,322.719315 C371.474248,316.588991 368.618227,310.460798 365.756505,304.334734 C364.670533,301.991664 363.618765,299.637944 362.549894,297.288483 C364.317806,295.816609 364.422555,294.481059 362.870556,292.779138 C362.130897,291.965454 361.363448,291.17307 360.589586,290.389207 C356.136673,285.873471 351.121534,282.005275 346.19618,278.034836 C336.11032,269.900123 325.128747,263.337396 312.847428,259.000586 C309.527517,257.837571 306.10927,257.026017 302.697436,256.197422 L306.673475,254.307188 C307.335145,253.990203 307.99547,253.670457 308.653181,253.345267 C310.627862,252.412363 312.185955,250.783985 313.026998,248.77415 C316.261399,241.329577 319.613377,233.933995 321.430456,225.982467 C322.691723,220.444301 323.499789,214.846493 324.130422,209.212475 C325.389551,197.961478 327.268625,186.846805 331.39874,176.219916 C331.826288,175.129324 332.28804,174.057901 332.739103,172.977959 C333.639092,170.809554 335.054276,169.099113 337.172777,168 L341.448258,168 Z M216.390439,168 C218.874493,169.278038 220.157138,171.472004 221.232421,173.947138 C224.984156,182.571767 226.865367,191.669269 228.361786,200.873275 C229.362248,207.05046 229.858204,213.310717 230.833014,219.502813 C232.13276,227.722729 234.775007,235.499592 238.056439,243.09966 C238.982081,245.244634 240.008196,247.349137 240.91246,249.504762 C241.491788,250.882913 242.449496,251.847832 243.691523,252.629565 C246.081517,254.12061 248.687422,255.168601 251.246298,256.316706 L247.776032,257.06491 C247.19813,257.191925 246.62094,257.322096 246.045175,257.45842 C239.845728,258.923904 233.686897,260.440509 228.002645,263.4652 C219.545744,267.959635 212.149162,273.857781 205.150199,280.303354 C198.777595,286.17168 193.208781,292.747187 187.742579,299.444108 C182.372574,306.026005 177.973105,313.102077 175.016609,321.068516 C172.863905,326.868679 171.459409,332.856289 170.354197,338.926971 C165.610551,336.91193 161.245285,334.24083 157.138686,331.169278 C150.28509,326.033694 144.280177,319.965143 138.283814,313.890201 C134.791448,310.341405 130.961935,307.13842 126.849041,304.326214 C124.604413,302.809609 122.477361,302.666894 120.192117,304.030135 C119.948414,304.17498 119.694023,304.304913 119.44177,304.436977 C117.960316,305.2038 116.542994,306.089907 114.990994,306.735316 C111.679634,308.115598 106.747867,307.606512 105.033399,303.022615 L105.033399,300.466538 C108.904847,295.377816 113.383413,291.051656 119.783808,289.313524 C123.259774,288.367776 126.838352,288.561612 130.399828,288.82787 C137.841302,289.390207 144.391339,292.372296 150.520241,296.404507 C152.752042,297.874251 154.626841,299.812609 156.704724,301.474059 C158.432207,302.897838 160.474101,303.892853 162.662607,304.377336 C164.836689,304.86299 166.950915,305.421067 169.174165,304.943933 C171.559883,304.430587 173.084092,302.890551 174.028973,300.713626 C174.074194,300.616414 174.094749,300.50962 174.08883,300.402637 C173.800235,297.772008 173.190979,295.056176 171.066065,293.462889 C167.092005,290.480799 164.652844,286.646684 163.543356,281.960544 C162.153825,276.058137 160.978068,270.087568 161.309417,263.978545 C161.77972,255.537102 160.240547,247.402389 157.961716,239.342227 C156.617077,234.566624 155.396427,229.75694 153.162488,225.283806 C152.91464,224.773451 152.574799,224.312812 152.159888,223.924825 C149.863955,221.794762 147.456859,219.805282 144.983493,217.877574 C144.429818,217.451561 143.762843,217.157613 143.177102,216.759291 C140.744354,215.102101 140.092343,212.298937 141.558833,209.759901 C142.361093,208.40622 143.552617,207.3236 144.979218,206.652138 C145.74869,206.248749 146.649007,206.171944 147.476099,206.439132 C153.053464,208.275247 158.564559,210.273246 163.712238,213.148833 C166.619565,214.769811 168.720964,217.210864 170.595762,219.869184 C175.104257,226.259375 178.505402,233.216164 181.134823,240.571274 C183.668045,247.640956 186.323119,254.670166 188.922611,261.729198 C189.454909,263.190422 189.615239,264.766669 190.523779,266.097959 C190.976035,266.783412 191.67972,267.265123 192.484087,267.439899 C195.632979,268.196072 199.688272,266.317355 201.17614,263.307575 C202.791283,259.988546 203.825849,256.419106 204.235247,252.753109 C204.737616,248.569664 205.460172,244.411779 205.996745,240.230464 C206.39864,237.10353 206.672271,233.959556 206.97583,230.819842 C207.484612,225.599766 208.089593,220.39105 208.790772,215.193694 C209.516378,209.884714 209.726136,204.518354 209.417129,199.169224 C209.220457,195.761122 209.045163,192.37219 208.705262,188.983259 C208.457284,186.514515 207.850166,184.096892 207.55302,181.638799 C207.125472,177.941008 207.290078,174.277298 209.049438,170.854286 C209.742066,169.518735 210.832314,168.66671 212.114958,168 L216.390439,168 Z M240.236934,313.687845 C240.202141,314.203761 240.271463,314.688068 240.436376,315.128111 C240.871408,316.287485 241.962975,317.137593 243.558983,317.453797 C245.250994,317.788007 246.945051,318.103938 248.641255,318.40028 C258.857966,320.191485 269.147943,321.26525 279.548375,321.33754 L280.967304,321.341164 C282.961816,321.341164 284.958465,321.400806 286.952977,321.328383 C293.116083,321.115377 299.225745,320.416716 305.232796,318.985313 C307.355573,318.478358 308.522779,316.708275 308.088818,314.701755 C307.759881,313.171657 306.46634,312.129114 304.888322,312.042511 C304.517671,312.020688 304.130482,312.051672 303.736378,312.141418 C299.576496,313.099752 295.34933,313.740629 291.091643,314.058476 C278.023635,314.999964 265.058239,313.943452 252.156975,311.87303 C249.491213,311.444887 246.851103,310.8506 244.181065,310.456538 C242.079667,310.145548 240.378025,311.623813 240.236934,313.687845 Z M227.987681,281.097801 C223.8255,281.114909 219.650493,285.309004 219.686835,289.437068 C219.711236,292.27369 221.836252,294.385638 224.589952,294.412602 L224.80299,294.410537 L225.01836,294.400117 C228.97318,294.131729 232.650093,290.580912 233.034886,286.655205 C233.051819,286.478239 233.060539,286.303355 233.061353,286.130892 C233.08053,283.276522 230.922871,281.083804 227.987681,281.097801 Z M324.786413,281.094113 L324.565678,281.094294 C321.740813,281.149001 319.657876,283.221219 319.643239,286.071883 L319.643305,286.131209 C319.643305,289.970053 323.121233,293.753662 327.109352,294.328488 L327.354135,294.359646 L327.354135,294.359646 C327.574954,294.383899 327.792255,294.395934 328.005459,294.396279 L328.217276,294.392797 C331.022727,294.294599 333.065594,292.151157 332.974255,289.215541 C332.850266,285.230192 329.013022,281.315135 325.009034,281.102128 C324.934369,281.098076 324.860155,281.095411 324.786413,281.094113 Z" id="Combined-Shape" fill="#FFFFFF" fill-rule="nonzero"></path>
            </g>
        </g>
    </g>
</svg>